<svg version="1.1" id="Layer_1" xmlns="http://www.w3.org/2000/svg" xmlns:xlink="http://www.w3.org/1999/xlink" x="0px" y="0px"
	 width="100%" viewBox="0 0 339 339" enable-background="new 0 0 339 339" xml:space="preserve">
<path fill="#000000" opacity="0.000000" stroke="none" 
	d="
M196.000000,340.000000 
	C130.666672,340.000000 65.833359,340.000000 1.000026,340.000000 
	C1.000017,227.000031 1.000017,114.000061 1.000009,1.000072 
	C113.999947,1.000048 226.999893,1.000048 339.999878,1.000024 
	C339.999939,113.999931 339.999939,226.999863 339.999969,339.999878 
	C292.166656,340.000000 244.333328,340.000000 196.000000,340.000000 
M193.536148,222.804886 
	C195.070526,221.459076 196.586121,220.091064 198.144257,218.773376 
	C199.895584,217.292328 201.685303,215.856659 203.431900,215.192871 
	C203.376602,230.466110 203.321304,245.739365 202.886047,261.284302 
	C202.910904,261.857330 202.935760,262.430389 202.818909,263.762878 
	C201.062317,267.144409 199.305725,270.525940 197.129898,274.287170 
	C198.371078,275.329468 199.799545,277.396759 200.816360,277.211029 
	C203.304825,276.756378 206.041580,275.752655 207.899155,274.096100 
	C214.562988,268.153351 220.147919,261.399414 221.320724,251.067642 
	C221.454010,237.192032 221.587280,223.316406 222.260025,209.461426 
	C222.969910,209.442062 223.679779,209.422684 224.527191,210.278259 
	C224.547546,220.428818 224.638702,230.579910 224.564148,240.729767 
	C224.511734,247.863602 224.233749,254.995758 223.411438,262.450684 
	C223.137344,263.696564 222.360443,265.093231 222.680588,266.160919 
	C223.776367,269.815369 223.462479,272.687073 220.129364,275.173523 
	C219.276871,275.809479 218.973022,278.403961 219.550385,279.503571 
	C221.258804,282.757233 223.533615,285.713501 225.979080,289.372925 
	C227.725388,286.365479 228.969284,284.244659 230.192780,282.112183 
	C234.137787,275.236298 234.134903,275.234650 228.624405,270.341522 
	C228.823929,268.460083 229.013397,266.673553 229.462250,264.225677 
	C228.778824,261.794708 227.529236,259.369629 227.503799,256.931793 
	C227.338135,241.052567 227.438141,225.170593 228.105560,209.020538 
	C230.069244,207.295074 232.047882,205.586182 233.989975,203.836731 
	C234.890076,203.025909 235.719101,202.136169 236.583099,202.183350 
	C236.584503,211.174271 236.760651,220.170792 236.471954,229.152390 
	C236.393799,231.584183 234.662628,233.919907 234.152695,236.395004 
	C233.778748,238.210083 233.372162,240.907944 234.340363,241.957123 
	C238.694916,246.675827 243.535294,250.946213 248.382477,255.551163 
	C252.820969,249.906128 257.020508,244.758255 260.976013,239.429291 
	C262.358551,237.566742 263.571350,235.145401 260.222015,233.717514 
	C255.619675,231.755508 254.805405,228.006836 254.819443,223.503403 
	C254.902527,196.863907 254.849869,170.224014 254.866455,143.584259 
	C254.870178,137.603851 254.529877,131.545105 258.854279,126.519943 
	C259.339355,125.956268 259.024200,124.703941 259.116516,123.163910 
	C243.816620,125.641975 228.949295,128.049988 214.090714,129.634399 
	C214.116028,126.297661 214.141342,122.960922 214.302048,118.831299 
	C214.391724,113.041321 214.481384,107.251335 215.165039,101.118767 
	C216.216309,99.076683 217.888214,97.119850 218.182953,94.973862 
	C218.712509,91.117958 218.524582,87.144745 218.389221,83.229088 
	C218.354050,82.211853 217.403793,81.226250 216.202682,80.034706 
	C213.664551,78.506065 211.188553,76.861099 208.578766,75.466576 
	C178.812881,59.561451 149.033051,43.682426 119.239708,27.828793 
	C114.019348,25.050934 108.719482,22.422495 103.001434,19.491899 
	C103.001434,21.122143 103.001434,22.061079 102.690498,23.642834 
	C102.759323,26.788603 103.091522,29.955263 102.843956,33.075932 
	C102.270348,40.306499 104.699966,46.062496 110.577423,51.220440 
	C110.877159,54.067322 111.176895,56.914207 111.077431,60.652634 
	C111.079872,64.467964 110.689850,68.332680 111.162407,72.088867 
	C112.324020,81.321953 117.816727,87.481705 126.166451,91.046783 
	C130.466095,92.882607 131.963181,91.703857 132.109894,87.164085 
	C132.233246,83.347603 132.464233,79.527115 132.367905,75.715469 
	C132.338028,74.534302 131.392029,73.376305 130.157944,72.038689 
	C128.727310,70.429169 127.296677,68.819656 126.554916,66.700165 
	C132.039429,62.504433 132.738785,62.735809 135.640762,68.844017 
	C136.384949,70.410408 137.876404,71.621750 139.140320,73.835968 
	C139.327011,75.789024 139.513702,77.742088 139.442856,80.540565 
	C139.692810,85.909775 139.942780,91.278976 140.246689,97.807251 
	C146.211395,92.744843 152.099579,92.489922 159.023056,95.127823 
	C159.023056,88.568581 159.023056,82.794563 159.020065,77.000092 
	C159.020065,77.000092 158.999771,76.999733 159.820068,76.827629 
	C160.484512,77.345154 161.454163,77.724297 161.762100,78.403465 
	C163.340073,81.883690 164.747620,85.441185 166.267059,89.888748 
	C166.980042,100.643906 166.816391,98.420334 158.565613,100.998428 
	C150.624207,103.479843 142.704575,106.030983 134.762695,108.510834 
	C113.957153,115.007370 93.137344,121.458336 72.345177,127.997269 
	C69.996574,128.735886 66.578148,128.846664 67.607018,133.544250 
	C69.066124,140.340118 71.963287,142.028671 78.657570,140.329849 
	C80.423820,139.881622 82.380569,140.184113 83.892288,140.734375 
	C79.510406,147.125107 76.971130,153.889420 79.459183,162.438126 
	C80.765060,168.461304 83.454567,171.165344 88.727928,171.756958 
	C94.553032,172.410477 102.726181,168.934006 104.133972,164.795288 
	C104.563225,163.533356 103.494476,161.761856 102.285027,160.375702 
	C95.292068,161.191681 91.669418,157.139267 93.501701,149.558441 
	C96.784218,144.255081 98.304543,137.669724 103.535988,134.860718 
	C106.012558,136.496841 107.969505,137.789688 110.244141,139.836670 
	C111.674568,154.440109 113.105003,169.043564 114.029968,184.015320 
	C113.216339,187.988434 114.444489,190.107986 118.838181,190.770279 
	C126.550255,191.932770 134.175888,193.668716 141.966339,196.017731 
	C143.377518,212.632904 144.788681,229.248077 146.199860,245.863266 
	C145.471237,245.980865 144.742615,246.098465 144.013992,246.216064 
	C143.203491,241.484161 142.392990,236.752258 141.523651,231.676926 
	C131.899078,234.377014 124.935707,230.066147 118.757690,223.090805 
	C118.940155,230.862732 119.324394,238.308975 120.234589,245.690384 
	C120.970551,251.658966 121.028259,257.264191 116.188484,262.525024 
	C115.711639,265.695618 117.590096,266.855164 120.262390,267.642975 
	C128.640350,270.112823 137.004562,272.637054 145.311310,275.333557 
	C146.820618,275.823486 148.033905,277.225281 148.906342,278.921143 
	C148.887024,280.611969 148.867722,282.302826 148.556763,284.570251 
	C149.258133,286.472443 149.959503,288.374634 150.219788,290.829712 
	C143.199722,299.226074 143.714539,301.581329 155.072845,311.548431 
	C156.739395,307.840027 158.349594,304.265900 159.952469,300.688507 
	C163.593414,292.562439 163.562729,292.489380 155.778961,289.041931 
	C155.513168,288.924194 155.357239,288.558380 155.561401,288.804962 
	C155.561401,284.609924 155.561401,280.916718 155.737442,276.496216 
	C163.270157,266.407715 172.041565,257.617157 181.834457,250.314423 
	C184.897461,258.219940 187.696503,265.444183 190.568787,272.857452 
	C200.772995,266.026550 199.036652,256.874115 198.463303,247.212418 
	C197.051819,244.816193 195.640335,242.419952 194.294174,239.105194 
	C193.807129,233.646957 193.320084,228.188705 193.536148,222.804886 
z"/>
<path fill="#BBBBBB" opacity="1.000000" stroke="none" 
	d="
M67.873634,132.991852 
	C66.578148,128.846664 69.996574,128.735886 72.345177,127.997269 
	C93.137344,121.458336 113.957153,115.007370 134.762695,108.510834 
	C142.704575,106.030983 150.624207,103.479843 158.565613,100.998428 
	C166.816391,98.420334 166.980042,100.643906 166.424011,89.071136 
	C166.828735,80.523811 167.826675,72.701454 163.110550,65.358040 
	C165.880096,65.079948 168.010101,64.866074 170.140106,64.652199 
	C170.173279,64.284218 170.206451,63.916229 170.239609,63.548241 
	C166.848297,61.707344 163.456970,59.866447 158.999771,57.446957 
	C158.999771,64.826019 158.999771,70.912880 158.999771,76.999733 
	C158.999771,76.999733 159.020065,77.000092 158.602478,76.972832 
	C151.511963,74.423859 145.439667,75.940193 139.700378,79.695145 
	C139.513702,77.742088 139.327011,75.789024 139.315552,73.080872 
	C140.217194,65.197502 140.732315,58.097122 136.103104,51.389408 
	C138.937164,50.991447 141.172379,50.677578 144.100555,50.266407 
	C134.297302,43.165211 125.186356,45.335766 123.496712,54.965454 
	C122.825531,58.790672 124.991661,63.113731 125.866043,67.210136 
	C127.296677,68.819656 128.727310,70.429169 130.417480,72.447853 
	C124.703903,75.030724 121.175331,70.835274 117.568390,67.491852 
	C115.191452,65.288582 113.483910,62.363155 111.476631,59.761089 
	C111.176895,56.914207 110.877159,54.067322 110.706345,50.410267 
	C111.641556,41.388939 117.897842,40.496227 125.760452,40.357697 
	C116.821701,34.492481 106.687866,32.848061 103.001434,23.000015 
	C103.001434,22.061079 103.001434,21.122143 103.001434,19.491899 
	C108.719482,22.422495 114.019348,25.050934 119.239708,27.828793 
	C149.033051,43.682426 178.812881,59.561451 208.578766,75.466576 
	C211.188553,76.861099 213.664551,78.506065 216.485535,80.478775 
	C212.003128,87.337555 214.561356,94.535789 214.571045,101.461357 
	C214.481384,107.251335 214.391724,113.041321 214.008270,119.064560 
	C208.704819,111.202240 204.094254,102.791206 195.841751,97.309097 
	C195.287811,96.941109 195.212341,95.852859 194.955811,94.625885 
	C194.997284,88.765900 194.997284,83.379639 194.997284,77.993370 
	C194.655594,77.988297 194.313904,77.983223 193.972214,77.978142 
	C193.972214,83.639175 193.972214,89.300201 193.957367,95.390976 
	C193.937836,97.537247 193.933151,99.253777 193.877701,101.437363 
	C193.943115,106.638603 194.059311,111.372780 194.162811,116.565125 
	C194.045486,121.358727 193.940857,125.694183 193.634003,130.383118 
	C193.651138,135.498367 193.870514,140.260117 194.105453,145.442596 
	C194.232803,146.691666 194.344604,147.520004 194.366211,148.773010 
	C194.577255,154.438095 194.878464,159.678497 194.907196,164.984222 
	C194.465012,165.722870 194.295334,166.396194 194.136749,167.488266 
	C194.263855,168.729645 194.379868,169.552277 194.389053,170.796692 
	C194.371704,174.717163 194.461197,178.215820 194.248566,182.008789 
	C192.023560,188.260315 192.494202,189.358398 197.785706,191.431808 
	C197.980179,191.508011 198.006897,192.012390 197.965698,192.618301 
	C196.473190,196.287338 195.126801,199.655289 193.587662,203.290863 
	C192.159866,204.796005 190.924789,206.033524 189.413437,207.366211 
	C185.906815,210.363312 182.676453,213.265213 179.072510,216.502731 
	C174.022430,207.678192 169.490112,199.656403 164.826508,191.711670 
	C164.068344,190.420074 162.728989,189.469650 161.549683,188.019745 
	C163.260513,184.770081 168.156525,183.332504 166.042664,178.137299 
	C167.599213,174.176086 164.812546,174.051270 162.581345,173.655029 
	C152.699677,171.900208 142.805130,170.217743 132.567322,168.404770 
	C131.897842,167.217010 131.368881,166.149155 131.286087,165.047775 
	C130.156387,150.021393 129.088425,134.990356 128.148438,119.658478 
	C128.733170,118.116837 129.174744,116.877174 130.013992,114.521065 
	C125.918793,115.935432 123.068306,116.919914 118.980453,118.331741 
	C121.054550,119.822357 122.132439,120.597023 123.143997,121.682419 
	C122.744194,123.157112 122.410728,124.321068 121.750038,125.641571 
	C119.326668,127.599182 117.137146,129.304596 115.163574,131.231216 
	C113.553535,132.802963 113.315506,134.370148 116.016769,135.502228 
	C116.999901,149.016617 118.298470,162.085938 118.950706,175.187408 
	C119.246017,181.119461 122.499237,182.305222 127.357101,183.210098 
	C138.883606,185.357101 150.926147,185.402222 161.765259,191.512360 
	C161.571762,199.251068 161.501816,206.552933 166.997726,212.505264 
	C167.244507,212.772537 167.031952,213.463928 166.699188,214.214172 
	C165.822693,226.038986 167.490540,237.377136 168.937714,250.020050 
	C173.892715,245.991882 177.580765,242.993698 181.567474,240.089279 
	C182.331818,240.598404 182.797501,241.013733 183.303452,241.789505 
	C182.384857,243.579239 181.625946,245.207153 180.435089,246.405991 
	C171.947632,254.950226 163.372696,263.407593 154.823975,271.890930 
	C152.698975,273.999695 152.501877,275.835022 155.561401,277.223480 
	C155.561401,280.916718 155.561401,284.609924 155.561401,288.804962 
	C155.357239,288.558380 155.513168,288.924194 155.778961,289.041931 
	C163.562729,292.489380 163.593414,292.562439 159.952469,300.688507 
	C158.349594,304.265900 156.739395,307.840027 155.072845,311.548431 
	C143.714539,301.581329 143.199722,299.226074 150.698837,290.399292 
	C150.401398,287.977142 149.624893,285.985413 148.848404,283.993652 
	C148.867722,282.302826 148.887024,280.611969 149.462585,278.453064 
	C151.623032,274.102905 149.907837,272.184082 146.221161,271.082733 
	C136.331619,268.128296 126.484093,265.033234 116.619873,261.994019 
	C121.028259,257.264191 120.970551,251.658966 120.234589,245.690384 
	C119.324394,238.308975 118.940155,230.862732 118.757690,223.090805 
	C124.935707,230.066147 131.899078,234.377014 141.523651,231.676926 
	C142.392990,236.752258 143.203491,241.484161 144.013992,246.216064 
	C144.742615,246.098465 145.471237,245.980865 146.199860,245.863266 
	C144.788681,229.248077 143.377518,212.632904 141.974670,195.191422 
	C142.129196,191.234558 140.433899,190.042908 137.507782,189.622208 
	C131.753265,188.794876 125.997635,187.882782 120.323784,186.635757 
	C118.274368,186.185333 116.458092,184.674133 114.535431,183.647003 
	C113.105003,169.043564 111.674568,154.440109 110.123299,139.110931 
	C103.309738,133.189545 108.644157,129.919235 113.137466,126.349983 
	C103.744049,126.128242 92.681786,139.248962 93.081253,150.080048 
	C91.669418,157.139267 95.292068,161.191681 102.568970,160.673553 
	C97.254967,169.207733 86.461716,169.550949 79.639610,161.709595 
	C76.971130,153.889420 79.510406,147.125107 84.399490,140.379349 
	C87.371101,137.620773 89.835510,135.217239 92.299919,132.813705 
	C92.068085,132.454025 91.836243,132.094330 91.604408,131.734650 
	C87.378304,133.030334 83.112022,134.209869 78.937180,135.653778 
	C74.603775,137.152542 70.830254,136.926041 67.873634,132.991852 
M188.135498,172.301682 
	C187.834244,171.381653 187.533005,170.461639 187.231750,169.541611 
	C186.944153,169.578445 186.656540,169.615295 186.368927,169.652130 
	C186.204742,170.712250 186.040558,171.772369 185.745163,173.781052 
	C185.745163,178.815430 185.745163,183.849808 185.745163,188.884186 
	C186.496552,188.872971 187.247955,188.861771 187.999344,188.850555 
	C187.999344,183.567276 187.999344,178.283981 188.135498,172.301682 
M175.324463,68.300087 
	C173.296478,69.447304 168.363800,68.093513 171.001846,74.186256 
	C170.709930,112.926025 170.411835,151.665756 170.162933,190.405807 
	C170.156937,191.339127 170.556458,192.352966 171.010803,193.198105 
	C173.215683,197.299469 175.340240,201.461853 177.862961,205.363556 
	C178.612961,206.523499 180.564209,206.906738 181.965057,207.645859 
	C182.503021,205.833084 183.634689,203.961517 183.462097,202.219131 
	C183.030289,197.859848 181.347275,193.562714 181.323959,189.234421 
	C181.109787,149.466843 181.142090,109.697945 181.780746,69.906303 
	C182.754303,69.403679 183.727859,68.901054 185.620636,67.923859 
	C182.374557,66.286499 180.249771,65.214745 177.936935,64.048126 
	C177.145172,65.673782 176.576996,66.840363 175.324463,68.300087 
M121.392921,48.500832 
	C122.228485,47.435303 123.064049,46.369778 124.099358,45.049538 
	C117.605400,43.907944 115.040901,45.764393 116.051971,50.941917 
	C115.291817,53.993401 114.377502,57.076672 117.904655,59.588074 
	C118.982590,55.905712 119.988358,52.469891 121.392921,48.500832 
M88.165871,147.680145 
	C88.787163,145.848267 89.408455,144.016403 90.029747,142.184525 
	C89.507858,142.017181 88.985970,141.849854 88.464081,141.682526 
	C86.555618,145.975143 81.252365,148.937180 84.060036,155.894104 
	C83.591713,159.341385 84.015175,162.149384 88.740974,162.341248 
	C88.486481,157.459534 88.246979,152.865372 88.165871,147.680145 
M158.977280,110.975189 
	C158.977280,114.222023 158.977280,117.468864 158.977280,121.043762 
	C161.073822,121.292961 163.290817,121.556488 166.007355,121.879379 
	C166.007355,116.827072 166.007355,112.385849 166.260376,107.285622 
	C167.086243,105.098221 166.669052,103.501610 164.005951,104.074242 
	C161.239105,104.669174 158.583450,105.781136 154.490906,107.121765 
	C156.869095,108.661880 157.979568,109.381012 158.977280,110.975189 
M185.925278,91.056961 
	C185.843872,98.521179 185.723389,105.985229 185.692276,113.449654 
	C185.662415,120.613228 185.725220,127.777184 185.747299,134.940964 
	C186.513718,134.919601 187.280136,134.898239 188.046555,134.876862 
	C188.046555,120.233994 188.046555,105.591125 188.150665,90.023727 
	C188.150665,84.587074 188.150665,79.150421 188.150665,73.713768 
	C187.472488,73.717819 186.794296,73.721870 186.116119,73.725922 
	C186.116119,79.202354 186.116119,84.678780 185.925278,91.056961 
M154.506897,55.213261 
	C155.203751,54.505226 155.900604,53.797192 156.597458,53.089157 
	C154.946182,51.983646 153.294907,50.878136 151.433685,49.632072 
	C150.189667,51.707253 149.327209,53.145920 148.272354,54.905537 
	C149.294022,54.905537 150.077469,54.905537 150.787109,55.603306 
	C149.325409,56.830093 147.802399,57.992626 146.424332,59.307091 
	C145.558914,60.132565 144.362976,61.134808 144.268234,62.146938 
	C143.983322,65.191063 144.165558,68.278908 144.165558,71.357613 
	C156.508240,70.951637 153.988113,70.931595 154.213470,62.247543 
	C154.273178,59.946102 153.928635,57.634163 154.506897,55.213261 
M209.444275,84.171928 
	C209.558487,83.118149 210.111084,81.368919 209.717453,81.120781 
	C206.611816,79.163094 203.325562,77.491890 200.094879,75.732544 
	C199.764038,76.042793 199.433182,76.353043 199.102325,76.663300 
	C199.417511,77.804298 199.732712,78.945305 199.908127,81.122490 
	C198.706558,89.995270 199.577530,97.990250 210.260010,102.986191 
	C209.740433,96.398354 209.270386,90.438499 209.444275,84.171928 
M138.364395,246.379410 
	C138.239578,244.693680 138.114761,243.007965 137.987610,240.467133 
	C137.303894,239.337463 136.835999,237.485504 135.898422,237.205353 
	C132.190765,236.097504 128.335938,235.482178 123.903168,234.551392 
	C124.338600,236.011581 124.682594,237.165146 124.902191,239.305038 
	C125.281845,245.415802 125.477989,251.548050 126.188828,257.620056 
	C126.339378,258.906067 128.169098,260.543121 129.571106,261.037720 
	C134.878525,262.910004 140.329559,264.374481 145.724289,266.000061 
	C152.724808,268.109497 154.810928,267.101654 158.609634,259.933868 
	C162.756088,257.825867 160.419312,256.854767 157.933136,255.742386 
	C151.510742,252.868820 145.123703,249.916275 138.364395,246.379410 
M148.420486,197.169922 
	C149.754700,213.732635 151.057159,230.298126 152.499039,246.851471 
	C152.589142,247.885834 153.557053,249.296997 154.486191,249.718994 
	C157.143066,250.925690 159.990570,251.712723 163.310913,252.852921 
	C163.426605,250.774826 163.675583,249.327103 163.558823,247.909485 
	C162.795868,238.644394 162.060165,229.374817 161.103348,220.128662 
	C160.354340,212.890747 159.299240,205.684494 158.675720,197.761612 
	C156.786224,195.960846 155.182541,193.536179 152.938950,192.508377 
	C149.729752,191.038239 147.316086,192.021210 148.420486,197.169922 
M153.620331,126.373352 
	C153.303619,123.672157 152.986923,120.970955 152.903275,117.434074 
	C152.818161,116.046928 152.733032,114.659775 152.612518,112.695801 
	C149.614090,113.526009 147.292603,114.332092 144.904388,114.790833 
	C141.528763,115.439240 140.997101,117.313896 142.125900,121.044327 
	C143.246033,135.134201 144.333313,149.226913 145.548981,163.308533 
	C145.645676,164.428635 146.468445,166.270203 147.229019,166.425110 
	C153.457184,167.693604 159.750717,168.641174 165.969864,169.677155 
	C165.969864,156.222427 165.969864,143.627777 166.160156,130.248672 
	C164.966141,129.046707 163.889526,127.003120 162.553848,126.816811 
	C159.714584,126.420769 156.740601,126.990616 153.620331,126.373352 
M134.228546,141.451645 
	C134.598709,157.359314 135.872696,163.963608 139.689682,165.686813 
	C138.205536,150.612549 137.642685,135.920654 135.602966,121.384972 
	C134.711136,121.451202 133.819290,121.517433 132.927444,121.583656 
	C133.347824,127.896622 133.768204,134.209579 134.228546,141.451645 
M77.959724,130.177948 
	C77.217346,130.740463 76.474968,131.302979 75.732590,131.865494 
	C75.910477,132.133591 76.088371,132.401688 76.266258,132.669785 
	C78.294312,131.971527 80.322365,131.273285 82.350418,130.575027 
	C82.241173,130.174866 82.131935,129.774704 82.022697,129.374557 
	C80.877174,129.576263 79.731644,129.777969 77.959724,130.177948 
M90.441528,126.497055 
	C89.845818,126.979965 89.250107,127.462868 88.654404,127.945778 
	C88.975098,128.210052 89.295792,128.474335 89.616486,128.738617 
	C90.057137,128.009262 90.497787,127.279915 90.441528,126.497055 
M95.122414,126.398293 
	C95.142799,126.156776 95.163185,125.915260 95.183571,125.673752 
	C95.046631,125.670006 94.909698,125.666260 94.772766,125.662506 
	C94.781715,125.905014 94.790665,126.147522 95.122414,126.398293 
z"/>
<path fill="#BABABA" opacity="1.000000" stroke="none" 
	d="
M194.089890,145.021881 
	C193.870514,140.260117 193.651138,135.498367 193.762924,130.795334 
	C194.035812,133.878998 195.999130,133.752792 198.086655,133.402618 
	C201.619553,132.809998 205.149979,132.202576 209.031952,131.771622 
	C211.036514,133.891022 212.690567,135.840195 214.249573,138.126526 
	C213.248627,140.381165 212.764389,143.496765 211.357849,143.991791 
	C207.111847,145.486145 207.707855,148.538162 207.709183,151.666550 
	C207.724060,186.663315 207.724701,221.660095 207.729111,256.656860 
	C207.729401,259.004120 207.729141,261.351349 207.729141,263.698608 
	C212.886276,258.836426 217.119614,253.739243 217.197006,246.648041 
	C217.329758,234.483932 217.221924,222.317322 217.242783,210.151825 
	C217.253143,204.105698 218.549896,202.139053 224.422287,201.528564 
	C228.777176,201.075836 230.701141,199.118210 231.238663,194.784271 
	C231.908630,193.744461 232.334885,192.949463 232.761139,192.154480 
	C231.867325,191.941376 230.969299,191.530304 230.080368,191.549088 
	C225.996643,191.635406 221.915451,191.841812 217.642807,191.644806 
	C217.380264,188.969482 217.258224,186.654800 217.244339,184.339447 
	C217.150131,168.601242 217.078705,152.862885 217.171417,136.853790 
	C217.148651,135.724625 217.142487,134.756073 216.718567,134.032196 
	C215.974579,132.761810 214.974670,131.641281 214.081970,130.457993 
	C228.949295,128.049988 243.816620,125.641975 259.116516,123.163910 
	C259.024200,124.703941 259.339355,125.956268 258.854279,126.519943 
	C254.529877,131.545105 254.870178,137.603851 254.866455,143.584259 
	C254.849869,170.224014 254.902527,196.863907 254.819443,223.503403 
	C254.805405,228.006836 255.619675,231.755508 260.222015,233.717514 
	C263.571350,235.145401 262.358551,237.566742 260.976013,239.429291 
	C257.020508,244.758255 252.820969,249.906128 248.382477,255.551163 
	C243.535294,250.946213 238.694916,246.675827 234.340363,241.957123 
	C233.372162,240.907944 233.778748,238.210083 234.152695,236.395004 
	C234.662628,233.919907 236.393799,231.584183 236.471954,229.152390 
	C236.760651,220.170792 236.584503,211.174271 236.732880,201.381454 
	C236.617447,199.730728 236.352234,198.881897 236.222092,198.465378 
	C233.346603,200.900085 230.490707,203.075531 227.983047,205.597290 
	C227.279541,206.304733 227.600311,208.030731 227.451233,209.289520 
	C227.438141,225.170593 227.338135,241.052567 227.503799,256.931793 
	C227.529236,259.369629 228.778824,261.794708 229.066498,264.679993 
	C227.608887,265.963989 226.547043,266.793671 224.643387,268.281128 
	C224.382278,265.544067 224.219391,263.836365 224.056488,262.128662 
	C224.233749,254.995758 224.511734,247.863602 224.564148,240.729767 
	C224.638702,230.579910 224.547546,220.428818 224.593124,209.466049 
	C223.973938,207.816238 223.288818,206.978638 222.603699,206.141037 
	C222.309311,207.240952 222.014938,208.340881 221.720551,209.440796 
	C221.587280,223.316406 221.454010,237.192032 220.966492,251.749466 
	C218.282028,256.459564 216.282303,260.730804 213.542511,264.458008 
	C209.637390,269.770477 205.023285,274.399536 197.549133,273.907471 
	C199.305725,270.525940 201.062317,267.144409 203.082397,263.245728 
	C203.319260,262.156616 203.292633,261.584595 203.266006,261.012604 
	C203.321304,245.739365 203.376602,230.466110 203.610031,214.341385 
	C203.694260,211.578796 203.600342,209.667679 203.498016,207.374283 
	C203.464508,202.125549 203.439423,197.259094 203.584686,191.931671 
	C203.664551,189.853287 203.574081,188.235886 203.471893,186.221130 
	C203.344818,174.213684 203.229477,162.603592 203.285675,150.738739 
	C202.697983,148.410706 201.938751,146.337418 201.066528,143.955612 
	C202.665482,142.697708 204.439880,141.301773 206.214279,139.905823 
	C205.867081,139.407776 205.519867,138.909714 205.172668,138.411667 
	C201.478409,140.615067 197.784149,142.818481 194.089890,145.021881 
M223.664062,169.877365 
	C223.664062,159.921158 223.664062,149.964951 223.664062,140.008743 
	C222.914200,140.013733 222.164352,140.018723 221.414490,140.023712 
	C221.414490,150.349014 221.414490,160.674316 221.074356,171.747406 
	C221.296280,177.568100 219.937653,183.539169 221.838577,189.200104 
	C222.442291,189.185379 223.046005,189.170639 223.649719,189.155914 
	C223.649719,183.032867 223.649719,176.909836 223.664062,169.877365 
M228.495331,139.535019 
	C228.495331,155.711563 228.495331,171.888107 228.495331,188.176819 
	C236.595154,187.036316 236.604538,187.036301 236.597275,179.720612 
	C236.583542,165.913803 236.557831,152.106995 236.783905,137.533203 
	C236.007935,136.513046 235.094727,134.549347 234.480164,134.638748 
	C232.034958,134.994446 228.308716,134.153214 228.495331,139.535019 
M242.019974,133.378052 
	C241.600250,136.819611 240.843460,140.258224 240.813400,143.703186 
	C240.539108,175.139847 240.238052,206.578842 240.489151,238.012802 
	C240.509872,240.606293 244.387024,243.317337 246.823486,245.598740 
	C247.234848,245.983932 249.693298,244.730072 250.765503,243.751129 
	C253.167450,241.558105 254.728073,239.092651 253.514175,235.384644 
	C252.114746,231.109924 250.522278,226.633820 250.468185,222.227310 
	C250.173935,198.263870 250.293579,174.294861 250.351715,150.327972 
	C250.366989,144.032806 250.670029,137.738358 251.271805,130.844040 
	C251.167801,130.018570 251.063782,129.193115 250.959763,128.367645 
	C247.937653,128.924347 244.908463,129.450348 241.917404,130.141449 
	C241.787521,130.171463 242.008270,131.718933 242.019974,133.378052 
M222.330826,137.537445 
	C222.330826,137.537445 222.583160,137.687073 222.583160,137.687073 
	C222.583160,137.687073 222.548584,137.374725 222.330826,137.537445 
z"/>
<path fill="#6F6F6F" opacity="1.000000" stroke="none" 
	d="
M155.649414,276.859863 
	C152.501877,275.835022 152.698975,273.999695 154.823975,271.890930 
	C163.372696,263.407593 171.947632,254.950226 180.435089,246.405991 
	C181.625946,245.207153 182.384857,243.579239 183.614792,241.780594 
	C186.320633,245.703445 188.755402,249.995651 191.340546,254.552948 
	C193.973221,252.033386 196.095337,250.002457 198.217438,247.971527 
	C199.036652,256.874115 200.772995,266.026550 190.568787,272.857452 
	C187.696503,265.444183 184.897461,258.219940 181.834457,250.314423 
	C172.041565,257.617157 163.270157,266.407715 155.649414,276.859863 
z"/>
<path fill="#6F6F6F" opacity="1.000000" stroke="none" 
	d="
M111.277031,60.206863 
	C113.483910,62.363155 115.191452,65.288582 117.568390,67.491852 
	C121.175331,70.835274 124.703903,75.030724 130.771240,72.532356 
	C131.392029,73.376305 132.338028,74.534302 132.367905,75.715469 
	C132.464233,79.527115 132.233246,83.347603 132.109894,87.164085 
	C131.963181,91.703857 130.466095,92.882607 126.166451,91.046783 
	C117.816727,87.481705 112.324020,81.321953 111.162407,72.088867 
	C110.689850,68.332680 111.079872,64.467964 111.277031,60.206863 
z"/>
<path fill="#717070" opacity="1.000000" stroke="none" 
	d="
M214.344620,137.789368 
	C212.690567,135.840195 211.036514,133.891022 209.163788,131.435928 
	C208.356598,129.487000 208.100998,127.744240 207.119934,126.654686 
	C203.534851,122.673172 199.707947,118.909401 195.991974,114.595535 
	C196.018692,111.686447 196.297745,109.205635 195.948517,106.816658 
	C195.655518,104.812271 194.629791,102.915001 193.928467,100.970306 
	C193.933151,99.253777 193.937836,97.537247 194.191483,95.436104 
	C194.440460,95.051491 194.914337,95.099602 194.914337,95.099602 
	C195.212341,95.852859 195.287811,96.941109 195.841751,97.309097 
	C204.094254,102.791206 208.704819,111.202240 213.940582,119.460999 
	C214.141342,122.960922 214.116028,126.297661 214.086334,130.046204 
	C214.974670,131.641281 215.974579,132.761810 216.718567,134.032196 
	C217.142487,134.756073 217.148651,135.724625 216.827576,136.879669 
	C215.656357,137.380676 215.000488,137.585022 214.344620,137.789368 
z"/>
<path fill="#6F6F6F" opacity="1.000000" stroke="none" 
	d="
M139.571625,80.117859 
	C145.439667,75.940193 151.511963,74.423859 158.603973,76.983063 
	C159.023056,82.794563 159.023056,88.568581 159.023056,95.127823 
	C152.099579,92.489922 146.211395,92.744843 140.246689,97.807251 
	C139.942780,91.278976 139.692810,85.909775 139.571625,80.117859 
z"/>
<path fill="#767676" opacity="1.000000" stroke="none" 
	d="
M126.210480,66.955154 
	C124.991661,63.113731 122.825531,58.790672 123.496712,54.965454 
	C125.186356,45.335766 134.297302,43.165211 144.100555,50.266407 
	C141.172379,50.677578 138.937164,50.991447 136.103104,51.389408 
	C140.732315,58.097122 140.217194,65.197502 139.257690,72.660995 
	C137.876404,71.621750 136.384949,70.410408 135.640762,68.844017 
	C132.738785,62.735809 132.039429,62.504433 126.210480,66.955154 
z"/>
<path fill="#A9A9A9" opacity="1.000000" stroke="none" 
	d="
M189.689697,207.271027 
	C190.924789,206.033524 192.159866,204.796005 193.894150,203.308777 
	C194.596756,203.038513 194.800156,203.017944 195.291931,203.157578 
	C197.748840,205.172028 199.917343,207.026276 202.021133,209.237442 
	C199.711105,212.520691 197.404556,215.402847 195.248474,218.393478 
	C194.287308,219.726669 193.628876,221.278091 192.833038,222.730469 
	C193.320084,228.188705 193.807129,233.646957 193.988968,239.454453 
	C192.437317,238.466217 191.190887,237.128723 189.915359,235.414429 
	C189.278198,232.163956 188.100830,229.274918 188.177872,226.419724 
	C188.350311,220.027878 189.147156,213.652878 189.689697,207.271027 
z"/>
<path fill="#717070" opacity="1.000000" stroke="none" 
	d="
M102.845963,23.321424 
	C106.687866,32.848061 116.821701,34.492481 125.760452,40.357697 
	C117.897842,40.496227 111.641556,41.388939 110.689301,49.983986 
	C104.699966,46.062496 102.270348,40.306499 102.843956,33.075932 
	C103.091522,29.955263 102.759323,26.788603 102.845963,23.321424 
z"/>
<path fill="#9E9E9E" opacity="1.000000" stroke="none" 
	d="
M223.733963,262.289673 
	C224.219391,263.836365 224.382278,265.544067 224.643387,268.281128 
	C226.547043,266.793671 227.608887,265.963989 228.936798,265.010651 
	C229.013397,266.673553 228.823929,268.460083 228.624405,270.341522 
	C234.134903,275.234650 234.137787,275.236298 230.192780,282.112183 
	C228.969284,284.244659 227.725388,286.365479 225.979080,289.372925 
	C223.533615,285.713501 221.258804,282.757233 219.550385,279.503571 
	C218.973022,278.403961 219.276871,275.809479 220.129364,275.173523 
	C223.462479,272.687073 223.776367,269.815369 222.680588,266.160919 
	C222.360443,265.093231 223.137344,263.696564 223.733963,262.289673 
z"/>
<path fill="#B7B7B7" opacity="1.000000" stroke="none" 
	d="
M189.944458,235.791229 
	C191.190887,237.128723 192.437317,238.466217 193.956299,239.913727 
	C195.640335,242.419952 197.051819,244.816193 198.340363,247.591965 
	C196.095337,250.002457 193.973221,252.033386 191.340546,254.552948 
	C188.755402,249.995651 186.320633,245.703445 183.574524,241.420151 
	C182.797501,241.013733 182.331818,240.598404 181.469238,239.711517 
	C180.714508,237.461060 180.356674,235.682159 180.141235,233.637878 
	C181.190125,232.582779 182.096649,231.793045 183.230408,231.191376 
	C184.239548,231.934082 185.021439,232.488739 185.701996,233.354691 
	C185.618164,237.244873 186.289551,237.573349 189.944458,235.791229 
z"/>
<path fill="#767676" opacity="1.000000" stroke="none" 
	d="
M159.409912,76.913681 
	C158.999771,70.912880 158.999771,64.826019 158.999771,57.446957 
	C163.456970,59.866447 166.848297,61.707344 170.239609,63.548241 
	C170.206451,63.916229 170.173279,64.284218 170.140106,64.652199 
	C168.010101,64.866074 165.880096,65.079948 163.110550,65.358040 
	C167.826675,72.701454 166.828735,80.523811 166.397858,88.612602 
	C164.747620,85.441185 163.340073,81.883690 161.762100,78.403465 
	C161.454163,77.724297 160.484512,77.345154 159.409912,76.913681 
z"/>
<path fill="#6F6F6F" opacity="1.000000" stroke="none" 
	d="
M116.404175,262.259521 
	C126.484093,265.033234 136.331619,268.128296 146.221161,271.082733 
	C149.907837,272.184082 151.623032,274.102905 149.701355,278.095581 
	C148.033905,277.225281 146.820618,275.823486 145.311310,275.333557 
	C137.004562,272.637054 128.640350,270.112823 120.262390,267.642975 
	C117.590096,266.855164 115.711639,265.695618 116.404175,262.259521 
z"/>
<path fill="#6F6F6F" opacity="1.000000" stroke="none" 
	d="
M114.282700,183.831161 
	C116.458092,184.674133 118.274368,186.185333 120.323784,186.635757 
	C125.997635,187.882782 131.753265,188.794876 137.507782,189.622208 
	C140.433899,190.042908 142.129196,191.234558 141.910370,194.764786 
	C134.175888,193.668716 126.550255,191.932770 118.838181,190.770279 
	C114.444489,190.107986 113.216339,187.988434 114.282700,183.831161 
z"/>
<path fill="#6C6B6B" opacity="1.000000" stroke="none" 
	d="
M79.549393,162.073853 
	C86.461716,169.550949 97.254967,169.207733 102.982346,160.597580 
	C103.494476,161.761856 104.563225,163.533356 104.133972,164.795288 
	C102.726181,168.934006 94.553032,172.410477 88.727928,171.756958 
	C83.454567,171.165344 80.765060,168.461304 79.549393,162.073853 
z"/>
<path fill="#717070" opacity="1.000000" stroke="none" 
	d="
M67.740326,133.268051 
	C70.830254,136.926041 74.603775,137.152542 78.937180,135.653778 
	C83.112022,134.209869 87.378304,133.030334 91.604408,131.734650 
	C91.836243,132.094330 92.068085,132.454025 92.299919,132.813705 
	C89.835510,135.217239 87.371101,137.620773 84.578270,140.083099 
	C82.380569,140.184113 80.423820,139.881622 78.657570,140.329849 
	C71.963287,142.028671 69.066124,140.340118 67.740326,133.268051 
z"/>
<path fill="#6C6B6B" opacity="1.000000" stroke="none" 
	d="
M93.291473,149.819244 
	C92.681786,139.248962 103.744049,126.128242 113.137466,126.349983 
	C108.644157,129.919235 103.309738,133.189545 109.964455,138.733856 
	C107.969505,137.789688 106.012558,136.496841 103.535988,134.860718 
	C98.304543,137.669724 96.784218,144.255081 93.291473,149.819244 
z"/>
<path fill="#656464" opacity="1.000000" stroke="none" 
	d="
M197.339508,274.097321 
	C205.023285,274.399536 209.637390,269.770477 213.542511,264.458008 
	C216.282303,260.730804 218.282028,256.459564 220.884003,252.211700 
	C220.147919,261.399414 214.562988,268.153351 207.899155,274.096100 
	C206.041580,275.752655 203.304825,276.756378 200.816360,277.211029 
	C199.799545,277.396759 198.371078,275.329468 197.339508,274.097321 
z"/>
<path fill="#767676" opacity="1.000000" stroke="none" 
	d="
M214.868042,101.290062 
	C214.561356,94.535789 212.003128,87.337555 216.821121,80.574478 
	C217.403793,81.226250 218.354050,82.211853 218.389221,83.229088 
	C218.524582,87.144745 218.712509,91.117958 218.182953,94.973862 
	C217.888214,97.119850 216.216309,99.076683 214.868042,101.290062 
z"/>
<path fill="#6C6B6B" opacity="1.000000" stroke="none" 
	d="
M193.184601,222.767670 
	C193.628876,221.278091 194.287308,219.726669 195.248474,218.393478 
	C197.404556,215.402847 199.711105,212.520691 202.210052,209.109161 
	C202.811279,208.334808 203.158859,208.045685 203.506439,207.756577 
	C203.600342,209.667679 203.694260,211.578796 203.623230,213.945557 
	C201.685303,215.856659 199.895584,217.292328 198.144257,218.773376 
	C196.586121,220.091064 195.070526,221.459076 193.184601,222.767670 
z"/>
<path fill="#605E5E" opacity="1.000000" stroke="none" 
	d="
M227.778412,209.155029 
	C227.600311,208.030731 227.279541,206.304733 227.983047,205.597290 
	C230.490707,203.075531 233.346603,200.900085 236.222092,198.465378 
	C236.352234,198.881897 236.617447,199.730728 236.731506,200.930878 
	C235.719101,202.136169 234.890076,203.025909 233.989975,203.836731 
	C232.047882,205.586182 230.069244,207.295074 227.778412,209.155029 
z"/>
<path fill="#6F6F6F" opacity="1.000000" stroke="none" 
	d="
M148.702576,284.281952 
	C149.624893,285.985413 150.401398,287.977142 150.919388,290.122864 
	C149.959503,288.374634 149.258133,286.472443 148.702576,284.281952 
z"/>
<path fill="#656464" opacity="1.000000" stroke="none" 
	d="
M221.990295,209.451111 
	C222.014938,208.340881 222.309311,207.240952 222.603699,206.141037 
	C223.288818,206.978638 223.973938,207.816238 224.524353,209.028580 
	C223.679779,209.422684 222.969910,209.442062 221.990295,209.451111 
z"/>
<path fill="#6C6B6B" opacity="1.000000" stroke="none" 
	d="
M203.076019,261.148438 
	C203.292633,261.584595 203.319260,262.156616 203.153259,262.866028 
	C202.935760,262.430389 202.910904,261.857330 203.076019,261.148438 
z"/>
<path fill="#FDFDFD" opacity="1.000000" stroke="none" 
	d="
M181.102600,69.929428 
	C181.142090,109.697945 181.109787,149.466843 181.323959,189.234421 
	C181.347275,193.562714 183.030289,197.859848 183.462097,202.219131 
	C183.634689,203.961517 182.503021,205.833084 181.965057,207.645859 
	C180.564209,206.906738 178.612961,206.523499 177.862961,205.363556 
	C175.340240,201.461853 173.215683,197.299469 171.010803,193.198105 
	C170.556458,192.352966 170.156937,191.339127 170.162933,190.405807 
	C170.411835,151.665756 170.709930,112.926025 171.402740,73.709763 
	C173.642044,71.960342 175.480453,70.687408 177.625916,69.259911 
	C178.989502,69.380035 180.046051,69.654732 181.102600,69.929428 
z"/>
<path fill="#FDFDFD" opacity="1.000000" stroke="none" 
	d="
M165.849655,178.452789 
	C168.156525,183.332504 163.260513,184.770081 161.533417,188.367279 
	C161.624664,189.753830 161.623627,190.451004 161.622604,191.148193 
	C150.926147,185.402222 138.883606,185.357101 127.357101,183.210098 
	C122.499237,182.305222 119.246017,181.119461 118.950706,175.187408 
	C118.298470,162.085938 116.999901,149.016617 116.277039,135.282898 
	C118.883781,131.861954 124.049988,130.815262 122.077255,125.485016 
	C122.410728,124.321068 122.744194,123.157112 123.485916,121.572998 
	C125.264534,120.755371 126.634895,120.357918 128.005264,119.960464 
	C129.088425,134.990356 130.156387,150.021393 131.286087,165.047775 
	C131.368881,166.149155 131.897842,167.217010 132.371765,168.793701 
	C132.771698,173.325409 135.858276,173.735779 138.859482,174.211395 
	C147.854355,175.636902 156.852676,177.040588 165.849655,178.452789 
z"/>
<path fill="#080404" opacity="1.000000" stroke="none" 
	d="
M152.670212,118.269760 
	C152.986923,120.970955 153.303619,123.672157 153.642059,127.197342 
	C154.871994,129.056580 155.974075,130.778320 157.310333,130.984833 
	C160.131943,131.420883 163.076019,131.064453 165.969864,131.033142 
	C165.969864,143.627777 165.969864,156.222427 165.969864,169.677155 
	C159.750717,168.641174 153.457184,167.693604 147.229019,166.425110 
	C146.468445,166.270203 145.645676,164.428635 145.548981,163.308533 
	C144.333313,149.226913 143.246033,135.134201 142.522064,120.515396 
	C146.168884,119.414223 149.419540,118.841995 152.670212,118.269760 
z"/>
<path fill="#100C0C" opacity="1.000000" stroke="none" 
	d="
M158.380142,198.464172 
	C159.299240,205.684494 160.354340,212.890747 161.103348,220.128662 
	C162.060165,229.374817 162.795868,238.644394 163.558823,247.909485 
	C163.675583,249.327103 163.426605,250.774826 163.310913,252.852921 
	C159.990570,251.712723 157.143066,250.925690 154.486191,249.718994 
	C153.557053,249.296997 152.589142,247.885834 152.499039,246.851471 
	C151.057159,230.298126 149.754700,213.732635 148.816406,196.703583 
	C152.268265,196.979553 155.324203,197.721863 158.380142,198.464172 
z"/>
<path fill="#767676" opacity="1.000000" stroke="none" 
	d="
M161.765259,191.512360 
	C161.623627,190.451004 161.624664,189.753830 161.641968,188.709091 
	C162.728989,189.469650 164.068344,190.420074 164.826508,191.711670 
	C169.490112,199.656403 174.022430,207.678192 179.072510,216.502731 
	C182.676453,213.265213 185.906815,210.363312 189.413422,207.366211 
	C189.147156,213.652878 188.350311,220.027878 188.177872,226.419724 
	C188.100830,229.274918 189.278198,232.163956 189.915359,235.414429 
	C186.289551,237.573349 185.618164,237.244873 185.731049,233.030426 
	C184.908676,231.931015 183.955917,231.467163 183.003159,231.003311 
	C182.096649,231.793045 181.190125,232.582779 179.809937,233.568878 
	C175.235306,227.162750 171.134323,220.560272 167.033340,213.957779 
	C167.031952,213.463928 167.244507,212.772537 166.997726,212.505264 
	C161.501816,206.552933 161.571762,199.251068 161.765259,191.512360 
z"/>
<path fill="#FDFDFD" opacity="1.000000" stroke="none" 
	d="
M157.914764,260.092255 
	C154.810928,267.101654 152.724808,268.109497 145.724289,266.000061 
	C140.329559,264.374481 134.878525,262.910004 129.571106,261.037720 
	C128.169098,260.543121 126.339378,258.906067 126.188828,257.620056 
	C125.477989,251.548050 125.281845,245.415802 125.341423,238.972870 
	C129.850418,239.534531 133.920181,240.428391 137.989944,241.322235 
	C138.114761,243.007965 138.239578,244.693680 138.575958,247.072342 
	C139.446533,252.684265 142.959885,254.996643 147.091904,256.554962 
	C150.639618,257.892914 154.302689,258.924957 157.914764,260.092255 
z"/>
<path fill="#0A0606" opacity="1.000000" stroke="none" 
	d="
M203.114136,150.993484 
	C203.229477,162.603592 203.344818,174.213684 203.147400,186.301483 
	C201.723862,186.726532 200.613129,186.673874 199.463806,186.284088 
	C197.800369,184.536118 196.175522,183.125305 194.550674,181.714493 
	C194.461197,178.215820 194.371704,174.717163 194.695908,170.704483 
	C196.838455,168.706909 198.727325,167.261169 196.074341,164.773743 
	C195.572144,164.795120 195.375916,164.857010 195.179672,164.918900 
	C194.878464,159.678497 194.577255,154.438095 194.669739,148.644745 
	C195.942032,147.419617 196.820648,146.747406 197.551834,146.187988 
	C199.539398,147.905121 201.326767,149.449310 203.114136,150.993484 
z"/>
<path fill="#FAFAFA" opacity="1.000000" stroke="none" 
	d="
M166.699188,214.214172 
	C171.134323,220.560272 175.235306,227.162750 179.667572,233.834244 
	C180.356674,235.682159 180.714508,237.461060 181.170563,239.617737 
	C177.580765,242.993698 173.892715,245.991882 168.937714,250.020050 
	C167.490540,237.377136 165.822693,226.038986 166.699188,214.214172 
z"/>
<path fill="#0A0606" opacity="1.000000" stroke="none" 
	d="
M195.972122,115.063599 
	C199.707947,118.909401 203.534851,122.673172 207.119934,126.654686 
	C208.100998,127.744240 208.356598,129.487000 208.813278,131.265701 
	C205.149979,132.202576 201.619553,132.809998 198.086655,133.402618 
	C195.999130,133.752792 194.035812,133.878998 193.965164,130.441849 
	C193.940857,125.694183 194.045486,121.358727 194.403381,116.461075 
	C195.095154,115.620445 195.533630,115.342026 195.972122,115.063599 
z"/>
<path fill="#FAFAFA" opacity="1.000000" stroke="none" 
	d="
M208.800339,84.478645 
	C209.270386,90.438499 209.740433,96.398354 210.260010,102.986191 
	C199.577530,97.990250 198.706558,89.995270 200.343948,80.739639 
	C203.453293,81.730743 206.126816,83.104691 208.800339,84.478645 
z"/>
<path fill="#2B2828" opacity="1.000000" stroke="none" 
	d="
M134.208557,140.987091 
	C133.768204,134.209579 133.347824,127.896622 132.927444,121.583656 
	C133.819290,121.517433 134.711136,121.451202 135.602966,121.384972 
	C137.642685,135.920654 138.205536,150.612549 139.689682,165.686813 
	C135.872696,163.963608 134.598709,157.359314 134.208557,140.987091 
z"/>
<path fill="#808080" opacity="1.000000" stroke="none" 
	d="
M166.042664,178.137299 
	C156.852676,177.040588 147.854355,175.636902 138.859482,174.211395 
	C135.858276,173.735779 132.771698,173.325409 132.719696,168.898010 
	C142.805130,170.217743 152.699677,171.900208 162.581345,173.655029 
	C164.812546,174.051270 167.599213,174.176086 166.042664,178.137299 
z"/>
<path fill="#FAFAFA" opacity="1.000000" stroke="none" 
	d="
M153.769714,55.327049 
	C153.928635,57.634163 154.273178,59.946102 154.213470,62.247543 
	C153.988113,70.931595 156.508240,70.951637 144.165558,71.357613 
	C144.165558,68.278908 143.983322,65.191063 144.268234,62.146938 
	C144.362976,61.134808 145.558914,60.132565 146.424332,59.307091 
	C147.802399,57.992626 149.325409,56.830093 151.187286,55.131851 
	C152.314896,54.882614 153.042297,55.104832 153.769714,55.327049 
z"/>
<path fill="#848484" opacity="1.000000" stroke="none" 
	d="
M158.262207,260.013062 
	C154.302689,258.924957 150.639618,257.892914 147.091904,256.554962 
	C142.959885,254.996643 139.446533,252.684265 138.755035,247.380280 
	C145.123703,249.916275 151.510742,252.868820 157.933136,255.742386 
	C160.419312,256.854767 162.756088,257.825867 158.262207,260.013062 
z"/>
<path fill="#2B2828" opacity="1.000000" stroke="none" 
	d="
M188.046555,90.948257 
	C188.046555,105.591125 188.046555,120.233994 188.046555,134.876862 
	C187.280136,134.898239 186.513718,134.919601 185.747299,134.940964 
	C185.725220,127.777184 185.662415,120.613228 185.692276,113.449654 
	C185.723389,105.985229 185.843872,98.521179 186.257965,90.714691 
	C187.075943,90.564369 187.561249,90.756310 188.046555,90.948257 
z"/>
<path fill="#FCFCFC" opacity="1.000000" stroke="none" 
	d="
M166.007355,107.944626 
	C166.007355,112.385849 166.007355,116.827072 166.007355,121.879379 
	C163.290817,121.556488 161.073822,121.292961 158.977280,121.043762 
	C158.977280,117.468864 158.977280,114.222023 159.377991,110.419418 
	C161.854904,109.223976 163.931137,108.584297 166.007355,107.944626 
z"/>
<path fill="#6C6B6B" opacity="1.000000" stroke="none" 
	d="
M203.285675,150.738739 
	C201.326767,149.449310 199.539398,147.905121 197.551834,146.187988 
	C196.820648,146.747406 195.942032,147.419617 194.759918,148.220078 
	C194.344604,147.520004 194.232803,146.691666 194.105453,145.442596 
	C197.784149,142.818481 201.478409,140.615067 205.172668,138.411667 
	C205.519867,138.909714 205.867081,139.407776 206.214279,139.905823 
	C204.439880,141.301773 202.665482,142.697708 201.066528,143.955612 
	C201.938751,146.337418 202.697983,148.410706 203.285675,150.738739 
z"/>
<path fill="#808080" opacity="1.000000" stroke="none" 
	d="
M137.988770,240.894684 
	C133.920181,240.428391 129.850418,239.534531 125.403618,238.479706 
	C124.682594,237.165146 124.338600,236.011581 123.903168,234.551392 
	C128.335938,235.482178 132.190765,236.097504 135.898422,237.205353 
	C136.835999,237.485504 137.303894,239.337463 137.988770,240.894684 
z"/>
<path fill="#BABABA" opacity="1.000000" stroke="none" 
	d="
M194.248566,182.008789 
	C196.175522,183.125305 197.800369,184.536118 199.379395,186.548492 
	C201.313293,189.436844 201.056931,191.194916 198.111801,192.317230 
	C198.006897,192.012390 197.980179,191.508011 197.785706,191.431808 
	C192.494202,189.358398 192.023560,188.260315 194.248566,182.008789 
z"/>
<path fill="#6C6B6B" opacity="1.000000" stroke="none" 
	d="
M152.786743,117.851921 
	C149.419540,118.841995 146.168884,119.414223 142.547348,120.075439 
	C140.997101,117.313896 141.528763,115.439240 144.904388,114.790833 
	C147.292603,114.332092 149.614090,113.526009 152.612518,112.695801 
	C152.733032,114.659775 152.818161,116.046928 152.786743,117.851921 
z"/>
<path fill="#6C6B6B" opacity="1.000000" stroke="none" 
	d="
M197.965698,192.618301 
	C201.056931,191.194916 201.313293,189.436844 199.417969,186.885651 
	C200.613129,186.673874 201.723862,186.726532 203.159103,186.698822 
	C203.574081,188.235886 203.664551,189.853287 203.302399,192.008209 
	C200.234360,196.029602 197.618942,199.513489 195.003540,202.997375 
	C194.800156,203.017944 194.596756,203.038513 194.086884,203.041168 
	C195.126801,199.655289 196.473190,196.287338 197.965698,192.618301 
z"/>
<path fill="#6C6B6B" opacity="1.000000" stroke="none" 
	d="
M166.065002,130.640900 
	C163.076019,131.064453 160.131943,131.420883 157.310333,130.984833 
	C155.974075,130.778320 154.871994,129.056580 153.742828,127.592934 
	C156.740601,126.990616 159.714584,126.420769 162.553848,126.816811 
	C163.889526,127.003120 164.966141,129.046707 166.065002,130.640900 
z"/>
<path fill="#848484" opacity="1.000000" stroke="none" 
	d="
M209.122314,84.325287 
	C206.126816,83.104691 203.453293,81.730743 200.413834,80.221550 
	C199.732712,78.945305 199.417511,77.804298 199.102325,76.663300 
	C199.433182,76.353043 199.764038,76.042793 200.094879,75.732544 
	C203.325562,77.491890 206.611816,79.163094 209.717453,81.120781 
	C210.111084,81.368919 209.558487,83.118149 209.122314,84.325287 
z"/>
<path fill="#FAFAFA" opacity="1.000000" stroke="none" 
	d="
M88.007469,148.271210 
	C88.246979,152.865372 88.486481,157.459534 88.740974,162.341248 
	C84.015175,162.149384 83.591713,159.341385 84.233978,155.187317 
	C85.607765,152.410767 86.807617,150.340988 88.007469,148.271210 
z"/>
<path fill="#848484" opacity="1.000000" stroke="none" 
	d="
M166.133865,107.615128 
	C163.931137,108.584297 161.854904,109.223976 159.434357,109.981895 
	C157.979568,109.381012 156.869095,108.661880 154.490906,107.121765 
	C158.583450,105.781136 161.239105,104.669174 164.005951,104.074242 
	C166.669052,103.501610 167.086243,105.098221 166.133865,107.615128 
z"/>
<path fill="#FAFAFA" opacity="1.000000" stroke="none" 
	d="
M120.994125,49.034073 
	C119.988358,52.469891 118.982590,55.905712 117.904655,59.588074 
	C114.377502,57.076672 115.291817,53.993401 116.424255,50.426403 
	C118.195732,49.618618 119.594925,49.326347 120.994125,49.034073 
z"/>
<path fill="#717070" opacity="1.000000" stroke="none" 
	d="
M158.527924,198.112885 
	C155.324203,197.721863 152.268265,196.979553 148.835968,196.304871 
	C147.316086,192.021210 149.729752,191.038239 152.938950,192.508377 
	C155.182541,193.536179 156.786224,195.960846 158.527924,198.112885 
z"/>
<path fill="#848484" opacity="1.000000" stroke="none" 
	d="
M128.148438,119.658478 
	C126.634895,120.357918 125.264534,120.755371 123.552246,121.262253 
	C122.132439,120.597023 121.054550,119.822357 118.980453,118.331741 
	C123.068306,116.919914 125.918793,115.935432 130.013992,114.521065 
	C129.174744,116.877174 128.733170,118.116837 128.148438,119.658478 
z"/>
<path fill="#8D8D8D" opacity="1.000000" stroke="none" 
	d="
M88.086670,147.975677 
	C86.807617,150.340988 85.607765,152.410767 84.232956,154.779022 
	C81.252365,148.937180 86.555618,145.975143 88.464081,141.682526 
	C88.985970,141.849854 89.507858,142.017181 90.029747,142.184525 
	C89.408455,144.016403 88.787163,145.848267 88.086670,147.975677 
z"/>
<path fill="#848484" opacity="1.000000" stroke="none" 
	d="
M121.750038,125.641571 
	C124.049988,130.815262 118.883781,131.861954 116.328796,134.850952 
	C113.315506,134.370148 113.553535,132.802963 115.163574,131.231216 
	C117.137146,129.304596 119.326668,127.599182 121.750038,125.641571 
z"/>
<path fill="#808080" opacity="1.000000" stroke="none" 
	d="
M188.098602,90.485992 
	C187.561249,90.756310 187.075943,90.564369 186.353378,90.263824 
	C186.116119,84.678780 186.116119,79.202354 186.116119,73.725922 
	C186.794296,73.721870 187.472488,73.717819 188.150665,73.713768 
	C188.150665,79.150421 188.150665,84.587074 188.098602,90.485992 
z"/>
<path fill="#848484" opacity="1.000000" stroke="none" 
	d="
M121.193527,48.767456 
	C119.594925,49.326347 118.195732,49.618618 116.461021,50.051041 
	C115.040901,45.764393 117.605400,43.907944 124.099358,45.049538 
	C123.064049,46.369778 122.228485,47.435303 121.193527,48.767456 
z"/>
<path fill="#8D8D8D" opacity="1.000000" stroke="none" 
	d="
M181.441681,69.917862 
	C180.046051,69.654732 178.989502,69.380035 177.429047,69.005005 
	C176.619705,68.605423 176.314255,68.306183 176.008820,68.006943 
	C176.576996,66.840363 177.145172,65.673782 177.936935,64.048126 
	C180.249771,65.214745 182.374557,66.286499 185.620636,67.923859 
	C183.727859,68.901054 182.754303,69.403679 181.441681,69.917862 
z"/>
<path fill="#2B2828" opacity="1.000000" stroke="none" 
	d="
M187.999344,173.000702 
	C187.999344,178.283981 187.999344,183.567276 187.999344,188.850555 
	C187.247955,188.861771 186.496552,188.872971 185.745163,188.884186 
	C185.745163,183.849808 185.745163,178.815430 186.166748,173.295105 
	C187.058670,172.873016 187.529007,172.936859 187.999344,173.000702 
z"/>
<path fill="#8D8D8D" opacity="1.000000" stroke="none" 
	d="
M154.138306,55.270157 
	C153.042297,55.104832 152.314896,54.882614 151.224213,54.782967 
	C150.077469,54.905537 149.294022,54.905537 148.272354,54.905537 
	C149.327209,53.145920 150.189667,51.707253 151.433685,49.632072 
	C153.294907,50.878136 154.946182,51.983646 156.597458,53.089157 
	C155.900604,53.797192 155.203751,54.505226 154.138306,55.270157 
z"/>
<path fill="#605E5E" opacity="1.000000" stroke="none" 
	d="
M195.991974,114.595535 
	C195.533630,115.342026 195.095154,115.620445 194.416092,116.002914 
	C194.059311,111.372780 193.943115,106.638603 193.877701,101.437363 
	C194.629791,102.915001 195.655518,104.812271 195.948517,106.816658 
	C196.297745,109.205635 196.018692,111.686447 195.991974,114.595535 
z"/>
<path fill="#808080" opacity="1.000000" stroke="none" 
	d="
M175.666641,68.153519 
	C176.314255,68.306183 176.619705,68.605423 177.122009,69.159576 
	C175.480453,70.687408 173.642044,71.960342 171.418091,73.259003 
	C168.363800,68.093513 173.296478,69.447304 175.666641,68.153519 
z"/>
<path fill="#9E9E9E" opacity="1.000000" stroke="none" 
	d="
M194.955811,94.625885 
	C194.914337,95.099602 194.440460,95.051491 194.206329,95.006363 
	C193.972214,89.300201 193.972214,83.639175 193.972214,77.978142 
	C194.313904,77.983223 194.655594,77.988297 194.997284,77.993370 
	C194.997284,83.379639 194.997284,88.765900 194.955811,94.625885 
z"/>
<path fill="#B7B7B7" opacity="1.000000" stroke="none" 
	d="
M78.272919,130.078812 
	C79.731644,129.777969 80.877174,129.576263 82.022697,129.374557 
	C82.131935,129.774704 82.241173,130.174866 82.350418,130.575027 
	C80.322365,131.273285 78.294312,131.971527 76.266258,132.669785 
	C76.088371,132.401688 75.910477,132.133591 75.732590,131.865494 
	C76.474968,131.302979 77.217346,130.740463 78.272919,130.078812 
z"/>
<path fill="#6C6B6B" opacity="1.000000" stroke="none" 
	d="
M196.380325,164.814240 
	C198.727325,167.261169 196.838455,168.706909 194.802734,170.282684 
	C194.379868,169.552277 194.263855,168.729645 194.415344,167.328278 
	C195.248672,166.104446 195.814499,165.459335 196.380325,164.814240 
z"/>
<path fill="#808080" opacity="1.000000" stroke="none" 
	d="
M188.067413,172.651184 
	C187.529007,172.936859 187.058670,172.873016 186.232346,172.820831 
	C186.040558,171.772369 186.204742,170.712250 186.368927,169.652130 
	C186.656540,169.615295 186.944153,169.578445 187.231750,169.541611 
	C187.533005,170.461639 187.834244,171.381653 188.067413,172.651184 
z"/>
<path fill="#B7B7B7" opacity="1.000000" stroke="none" 
	d="
M90.689987,126.523804 
	C90.497787,127.279915 90.057137,128.009262 89.616486,128.738617 
	C89.295792,128.474335 88.975098,128.210052 88.654404,127.945778 
	C89.250107,127.462868 89.845818,126.979965 90.689987,126.523804 
z"/>
<path fill="#BABABA" opacity="1.000000" stroke="none" 
	d="
M196.074341,164.773743 
	C195.814499,165.459335 195.248672,166.104446 194.404236,166.909531 
	C194.295334,166.396194 194.465012,165.722870 194.907196,164.984222 
	C195.375916,164.857010 195.572144,164.795120 196.074341,164.773743 
z"/>
<path fill="#B7B7B7" opacity="1.000000" stroke="none" 
	d="
M94.961014,126.394165 
	C94.790665,126.147522 94.781715,125.905014 94.772766,125.662506 
	C94.909698,125.666260 95.046631,125.670006 95.183571,125.673752 
	C95.163185,125.915260 95.142799,126.156776 94.961014,126.394165 
z"/>
<path fill="#FDFDFD" opacity="1.000000" stroke="none" 
	d="
M214.249573,138.126526 
	C215.000488,137.585022 215.656357,137.380676 216.656067,137.150467 
	C217.078705,152.862885 217.150131,168.601242 217.244339,184.339447 
	C217.258224,186.654800 217.380264,188.969482 217.616013,192.022064 
	C218.050354,195.768799 219.838730,196.707581 222.610428,196.293503 
	C225.405853,195.875885 228.200165,195.450867 230.994965,195.029083 
	C230.701141,199.118210 228.777176,201.075836 224.422287,201.528564 
	C218.549896,202.139053 217.253143,204.105698 217.242783,210.151825 
	C217.221924,222.317322 217.329758,234.483932 217.197006,246.648041 
	C217.119614,253.739243 212.886276,258.836426 207.729141,263.698608 
	C207.729141,261.351349 207.729401,259.004120 207.729111,256.656860 
	C207.724701,221.660095 207.724060,186.663315 207.709183,151.666550 
	C207.707855,148.538162 207.111847,145.486145 211.357849,143.991791 
	C212.764389,143.496765 213.248627,140.381165 214.249573,138.126526 
z"/>
<path fill="#FCFCFC" opacity="1.000000" stroke="none" 
	d="
M250.840897,131.443573 
	C250.670029,137.738358 250.366989,144.032806 250.351715,150.327972 
	C250.293579,174.294861 250.173935,198.263870 250.468185,222.227310 
	C250.522278,226.633820 252.114746,231.109924 253.514175,235.384644 
	C254.728073,239.092651 253.167450,241.558105 250.765503,243.751129 
	C249.693298,244.730072 247.234848,245.983932 246.823486,245.598740 
	C244.387024,243.317337 240.509872,240.606293 240.489151,238.012802 
	C240.238052,206.578842 240.539108,175.139847 240.813400,143.703186 
	C240.843460,140.258224 241.600250,136.819611 242.462036,133.006088 
	C245.549713,132.237274 248.195297,131.840424 250.840897,131.443573 
z"/>
<path fill="#050101" opacity="1.000000" stroke="none" 
	d="
M236.537109,138.300171 
	C236.557831,152.106995 236.583542,165.913803 236.597275,179.720612 
	C236.604538,187.036301 236.595154,187.036316 228.495331,188.176819 
	C228.495331,171.888107 228.495331,155.711563 229.035995,139.129578 
	C231.896805,138.582825 234.216965,138.441498 236.537109,138.300171 
z"/>
<path fill="#100C0C" opacity="1.000000" stroke="none" 
	d="
M195.291931,203.157578 
	C197.618942,199.513489 200.234360,196.029602 203.132050,192.469177 
	C203.439423,197.259094 203.464508,202.125549 203.498016,207.374283 
	C203.158859,208.045685 202.811279,208.334808 202.274780,208.752228 
	C199.917343,207.026276 197.748840,205.172028 195.291931,203.157578 
z"/>
<path fill="#605E5E" opacity="1.000000" stroke="none" 
	d="
M223.649719,170.786804 
	C223.649719,176.909836 223.649719,183.032867 223.649719,189.155914 
	C223.046005,189.170639 222.442291,189.185379 221.838577,189.200104 
	C219.937653,183.539169 221.296280,177.568100 221.615509,171.321777 
	C222.654343,170.859711 223.152023,170.823257 223.649719,170.786804 
z"/>
<path fill="#100C0C" opacity="1.000000" stroke="none" 
	d="
M223.656891,170.332092 
	C223.152023,170.823257 222.654343,170.859711 221.785568,170.947891 
	C221.414490,160.674316 221.414490,150.349014 221.414490,140.023712 
	C222.164352,140.018723 222.914200,140.013733 223.664062,140.008743 
	C223.664062,149.964951 223.664062,159.921158 223.656891,170.332092 
z"/>
<path fill="#848484" opacity="1.000000" stroke="none" 
	d="
M231.238663,194.784271 
	C228.200165,195.450867 225.405853,195.875885 222.610428,196.293503 
	C219.838730,196.707581 218.050354,195.768799 217.806564,192.382385 
	C221.915451,191.841812 225.996643,191.635406 230.080368,191.549088 
	C230.969299,191.530304 231.867325,191.941376 232.761139,192.154480 
	C232.334885,192.949463 231.908630,193.744461 231.238663,194.784271 
z"/>
<path fill="#605E5E" opacity="1.000000" stroke="none" 
	d="
M236.660507,137.916687 
	C234.216965,138.441498 231.896805,138.582825 229.174805,138.723816 
	C228.308716,134.153214 232.034958,134.994446 234.480164,134.638748 
	C235.094727,134.549347 236.007935,136.513046 236.660507,137.916687 
z"/>
<path fill="#808080" opacity="1.000000" stroke="none" 
	d="
M251.056351,131.143799 
	C248.195297,131.840424 245.549713,132.237274 242.484894,132.596832 
	C242.008270,131.718933 241.787521,130.171463 241.917404,130.141449 
	C244.908463,129.450348 247.937653,128.924347 250.959763,128.367645 
	C251.063782,129.193115 251.167801,130.018570 251.056351,131.143799 
z"/>
<path fill="#605E5E" opacity="1.000000" stroke="none" 
	d="
M222.439697,137.456085 
	C222.548584,137.374725 222.583160,137.687073 222.583160,137.687073 
	C222.583160,137.687073 222.330826,137.537445 222.439697,137.456085 
z"/>
<path fill="#A9A9A9" opacity="1.000000" stroke="none" 
	d="
M183.230408,231.191376 
	C183.955917,231.467163 184.908676,231.931015 185.832367,232.719147 
	C185.021439,232.488739 184.239548,231.934082 183.230408,231.191376 
z"/>
</svg>
