<svg version="1.1" id="Layer_1" xmlns="http://www.w3.org/2000/svg" xmlns:xlink="http://www.w3.org/1999/xlink" x="0px" y="0px"
	 width="100%" viewBox="0 0 800 800" enable-background="new 0 0 800 800" xml:space="preserve">
<path fill="#000000" opacity="0.000000" stroke="none" 
	d="
M360.000000,801.000000 
	C240.000000,801.000000 120.500000,801.000000 1.000000,801.000000 
	C1.000000,534.333313 1.000000,267.666656 1.000000,1.000000 
	C267.666656,1.000000 534.333313,1.000000 801.000000,1.000000 
	C801.000000,267.666656 801.000000,534.333313 801.000000,801.000000 
	C654.166687,801.000000 507.333344,801.000000 360.000000,801.000000 
M432.656616,445.048279 
	C433.032837,445.041138 433.409027,445.034027 433.915070,445.952759 
	C433.915588,459.941254 434.128235,473.934570 433.807587,487.915710 
	C433.686798,493.184937 434.403931,499.096436 428.841919,502.810791 
	C428.206787,503.234985 427.907227,505.041138 428.270233,505.830017 
	C428.624756,506.600464 430.126251,507.429932 430.949951,507.279449 
	C432.860016,506.930420 434.985748,506.411743 436.459656,505.247375 
	C445.358429,498.217499 451.792908,489.650665 451.949127,477.707825 
	C452.075439,468.050385 451.974762,458.389984 451.974762,448.730896 
	C451.974762,445.519043 451.974762,442.307220 451.974762,439.095367 
	C452.458923,438.996216 452.943115,438.897095 453.427277,438.797943 
	C453.958954,439.955139 454.946198,441.109467 454.953491,442.269958 
	C455.053894,458.256744 455.093781,474.245056 454.944672,490.231110 
	C454.919891,492.884918 453.068542,495.717957 453.598053,498.130890 
	C454.255188,501.125305 454.170563,503.171967 451.562103,504.765472 
	C448.954376,506.358490 449.064362,508.554932 450.370117,510.723877 
	C452.175018,513.721741 454.281006,516.538330 456.485809,519.765991 
	C458.246033,516.702515 459.644501,514.254639 461.056213,511.814423 
	C464.784271,505.370026 464.786591,505.371368 460.251312,502.139801 
	C459.337494,497.055054 458.120972,493.285522 458.072815,489.501129 
	C457.858948,472.705017 457.980133,455.904572 457.980133,439.105713 
	C458.404999,439.343201 458.829865,439.580688 459.254730,439.818176 
	C461.688599,436.683472 464.122437,433.548767 466.974060,429.876007 
	C466.974060,441.189331 467.047546,452.063232 466.875519,462.933319 
	C466.855377,464.207214 465.122314,465.380463 464.822357,466.741211 
	C464.397736,468.667511 463.677124,471.543793 464.635773,472.586243 
	C469.085632,477.425415 474.071381,481.771729 479.172699,486.584534 
	C483.559357,478.936981 490.940948,473.909698 493.346161,465.130371 
	C486.511963,463.325684 485.211090,458.871277 485.244751,453.112732 
	C485.395752,427.300537 485.259460,401.486786 485.346466,375.674011 
	C485.368011,369.278687 484.567413,362.622314 489.550873,357.252441 
	C490.128662,356.629913 489.753174,355.122711 489.849670,353.530426 
	C474.592194,356.075378 459.789032,358.544525 444.711853,360.126007 
	C444.733429,357.029266 444.755035,353.932495 444.895203,349.926636 
	C445.057129,343.728119 445.219055,337.529572 446.070648,331.072479 
	C446.997223,329.480377 448.606293,327.935883 448.721313,326.287170 
	C449.055176,321.500885 448.789825,316.672852 448.548645,311.247437 
	C445.217316,309.389496 441.913513,307.480042 438.550232,305.681885 
	C413.969421,292.539825 389.388733,279.397491 364.781921,266.304199 
	C354.440247,260.801392 344.035400,255.417343 333.016357,249.642365 
	C333.247650,251.857620 333.398926,253.306839 333.237762,255.675125 
	C333.244598,259.313049 333.206909,262.951752 333.268402,266.588745 
	C333.367554,272.449585 335.619812,277.134583 340.989136,280.980774 
	C341.219635,283.563171 341.450134,286.145538 341.306427,289.630524 
	C341.291260,292.961456 341.151520,296.297363 341.284210,299.622406 
	C341.688477,309.754242 346.767517,316.898499 355.782410,321.173645 
	C361.101135,323.695953 362.710144,322.546021 362.740265,316.831421 
	C362.763062,312.504913 362.744873,308.178162 362.543121,303.243774 
	C360.552063,301.197510 358.560974,299.151215 357.214478,296.913239 
	C359.598297,295.859711 361.982086,294.806183 363.408813,294.175659 
	C365.901001,297.963684 367.696503,300.692780 369.651947,304.234528 
	C369.821167,306.452087 369.990417,308.669647 370.059296,311.832489 
	C370.059296,317.205841 370.059296,322.579224 370.059296,329.381104 
	C376.227600,322.990784 382.331879,322.880524 389.849884,325.956482 
	C389.849884,319.047333 389.849884,312.972412 389.894409,306.860291 
	C389.894409,306.860291 389.864014,306.810913 390.717865,306.796143 
	C391.221069,307.538177 391.830292,308.230133 392.208740,309.031128 
	C393.675934,312.136841 395.069672,315.277313 396.643219,319.261261 
	C397.669586,329.077240 397.607971,329.086151 391.843689,330.874878 
	C361.848846,340.182678 331.890045,349.608002 301.852570,358.775696 
	C298.209381,359.887695 297.403748,361.535980 298.336395,365.481171 
	C300.554077,371.178101 302.882660,372.404419 308.581604,370.908600 
	C311.109955,370.244965 313.648193,369.618988 315.915680,369.619965 
	C309.758423,376.695953 307.176270,384.573578 310.322571,394.481506 
	C311.471130,399.645325 314.990112,402.070129 319.981873,402.205933 
	C325.914948,402.367310 331.124481,400.424591 334.668732,395.385529 
	C335.195862,394.636108 334.689636,393.159882 334.515747,391.062744 
	C325.913513,391.114014 323.008545,389.221771 323.754456,382.968170 
	C324.706787,374.983795 328.611511,368.438232 334.931396,363.770844 
	C336.373230,365.688690 337.630249,367.166046 338.663849,368.785919 
	C339.891754,370.710266 341.601654,372.655792 341.919708,374.770081 
	C342.856323,380.996094 343.404297,387.299652 343.737823,393.592316 
	C344.130157,400.993866 344.138000,408.415833 344.355560,416.600281 
	C345.568604,418.049133 346.573975,420.474884 348.029205,420.784271 
	C355.963257,422.471008 364.007996,423.636749 372.264832,425.781433 
	C373.773071,442.778748 375.281311,459.776031 376.789551,476.773346 
	C376.040344,476.878876 375.291168,476.984375 374.541962,477.089905 
	C373.737976,472.142120 372.933960,467.194336 372.094391,462.027588 
	C362.134583,465.070862 355.217010,460.529785 348.750885,451.809906 
	C349.103241,456.662140 349.626129,460.068115 349.544769,463.459564 
	C349.307587,473.350403 354.647552,483.740753 346.753326,493.542633 
	C347.911407,495.003967 348.793915,497.307037 350.272003,497.790955 
	C360.412231,501.110870 370.677246,504.049713 380.674622,507.832275 
	C380.371643,510.917389 378.982941,514.465881 380.050079,516.966248 
	C381.286774,519.863953 380.904297,521.303162 379.112030,523.360718 
	C374.231567,528.963623 374.258789,529.697754 378.927277,535.373413 
	C380.911957,537.786255 383.016907,540.100220 385.437225,542.884888 
	C387.362701,538.567566 389.087646,534.706787 390.806854,530.843506 
	C394.386169,522.800415 394.383148,522.804382 386.226593,519.650879 
	C385.963409,519.549133 385.816559,519.146362 385.615509,518.883972 
	C385.957031,518.854492 386.298584,518.825073 386.640106,518.795654 
	C386.357056,514.900085 386.074005,511.004517 386.074799,506.471954 
	C394.426086,496.931244 402.816193,487.431702 412.596008,480.536621 
	C415.408508,488.266876 418.112701,495.699493 420.816864,503.132080 
	C421.388611,503.182434 421.960358,503.232788 422.532074,503.283142 
	C424.692719,500.084839 427.991516,497.128418 428.735138,493.629059 
	C429.737671,488.911255 428.772888,483.775391 428.885437,478.085693 
	C428.896393,477.460419 429.183868,476.540802 428.877655,476.253113 
	C421.956635,469.750061 426.541840,460.372833 423.593903,452.988708 
	C426.426880,450.332062 429.259857,447.675446 432.656616,445.048279 
z"/>
<path fill="#BBBBBB" opacity="1.000000" stroke="none" 
	d="
M333.550232,254.756058 
	C333.398926,253.306839 333.247650,251.857620 333.016357,249.642365 
	C344.035400,255.417343 354.440247,260.801392 364.781921,266.304199 
	C389.388733,279.397491 413.969421,292.539825 438.550232,305.681885 
	C441.913513,307.480042 445.217316,309.389496 448.299194,311.652924 
	C446.971832,313.741089 445.074097,315.376495 444.973785,317.115540 
	C444.701965,321.830566 445.192657,326.589508 445.380981,331.331055 
	C445.219055,337.529572 445.057129,343.728119 444.597839,350.168030 
	C443.230316,348.583221 442.387054,346.567413 441.048676,344.965332 
	C436.492340,339.511322 431.761353,334.203186 426.910339,328.512207 
	C426.094788,321.487000 425.465942,314.788971 424.837097,308.090912 
	C423.965057,314.740509 423.860504,321.444153 423.996338,328.142944 
	C424.116760,334.080231 424.504425,340.012115 424.760864,346.417542 
	C424.729340,352.613556 424.711121,358.338348 424.512329,364.430756 
	C424.395081,368.428223 424.458405,372.058075 424.491028,375.951111 
	C424.754791,376.831390 425.049286,377.448547 425.190735,378.508026 
	C425.335693,384.367462 425.633698,389.784515 425.850159,395.512848 
	C425.468353,397.543182 425.168121,399.262299 424.833069,401.439301 
	C423.693909,408.551849 425.195465,414.000854 431.873962,417.375946 
	C432.000763,418.068268 432.075775,418.463257 432.034912,419.191010 
	C429.178253,423.467590 424.175201,426.122009 424.846680,432.344055 
	C427.531891,435.442932 430.183502,438.189240 432.520508,441.030640 
	C429.557220,443.818359 426.797943,446.414703 424.322815,449.258392 
	C423.511200,450.190857 423.437286,451.765411 423.026062,453.046387 
	C426.541840,460.372833 421.956635,469.750061 428.877655,476.253113 
	C429.183868,476.540802 428.896393,477.460419 428.439514,478.501770 
	C426.192200,481.186157 424.390747,483.454468 421.922943,486.561829 
	C419.076569,480.261963 416.994049,475.652710 415.150482,471.572357 
	C413.539246,473.548065 412.136108,475.584320 410.423828,477.314697 
	C402.044708,485.782654 393.556549,494.142700 385.174866,502.608185 
	C383.622681,504.175903 382.734497,506.002991 385.790955,507.108948 
	C386.074005,511.004517 386.357056,514.900085 386.640106,518.795654 
	C386.298584,518.825073 385.957031,518.854492 385.615509,518.883972 
	C385.816559,519.146362 385.963409,519.549133 386.226593,519.650879 
	C394.383148,522.804382 394.386169,522.800415 390.806854,530.843506 
	C389.087646,534.706787 387.362701,538.567566 385.437225,542.884888 
	C383.016907,540.100220 380.911957,537.786255 378.927277,535.373413 
	C374.258789,529.697754 374.231567,528.963623 379.112030,523.360718 
	C380.904297,521.303162 381.286774,519.863953 380.050079,516.966248 
	C378.982941,514.465881 380.371643,510.917389 380.813782,507.073364 
	C380.108368,504.918427 379.544250,502.634552 378.375366,502.265289 
	C367.988342,498.984406 357.494293,496.042206 347.031830,493.000092 
	C354.647552,483.740753 349.307587,473.350403 349.544769,463.459564 
	C349.626129,460.068115 349.103241,456.662140 348.750885,451.809906 
	C355.217010,460.529785 362.134583,465.070862 372.094391,462.027588 
	C372.933960,467.194336 373.737976,472.142120 374.541962,477.089905 
	C375.291168,476.984375 376.040344,476.878876 376.789551,476.773346 
	C375.281311,459.776031 373.773071,442.778748 372.193146,424.980286 
	C372.369781,421.415741 370.890991,420.484589 368.340729,420.071747 
	C360.312805,418.772003 352.319366,417.259247 344.312561,415.828979 
	C344.138000,408.415833 344.130157,400.993866 343.737823,393.592316 
	C343.404297,387.299652 342.856323,380.996094 341.919708,374.770081 
	C341.601654,372.655792 339.891754,370.710266 338.663849,368.785919 
	C337.630249,367.166046 336.373230,365.688690 334.931396,363.770844 
	C328.611511,368.438232 324.706787,374.983795 323.754456,382.968170 
	C323.008545,389.221771 325.913513,391.114014 334.224426,391.625153 
	C324.492920,399.532043 320.132141,399.827515 310.499207,393.775360 
	C307.176270,384.573578 309.758423,376.695953 316.359833,369.199158 
	C319.004364,366.753510 321.204742,364.728668 323.405121,362.703857 
	C318.989044,363.129089 315.033020,364.235504 311.210114,365.691376 
	C306.770172,367.382263 302.565948,367.652679 298.518494,364.777924 
	C297.403748,361.535980 298.209381,359.887695 301.852570,358.775696 
	C331.890045,349.608002 361.848846,340.182678 391.843689,330.874878 
	C397.607971,329.086151 397.669586,329.077240 396.728790,318.362457 
	C397.022614,309.992371 398.319000,302.377686 392.796173,295.183014 
	C396.540344,295.375244 399.147217,295.509094 401.754120,295.642914 
	C401.801697,295.301147 401.849243,294.959381 401.896820,294.617615 
	C397.933105,292.519562 393.969421,290.421539 389.864014,288.248474 
	C389.864014,294.949951 389.864014,300.880432 389.864014,306.810913 
	C389.864014,306.810913 389.894409,306.860291 389.462036,306.981598 
	C382.121735,305.283173 375.635559,305.566376 370.159637,310.887207 
	C369.990417,308.669647 369.821167,306.452087 369.748352,303.360840 
	C370.116852,295.308655 371.492615,287.977142 365.997711,281.327789 
	C369.263245,281.138763 371.606567,281.003143 374.483002,280.836639 
	C368.059570,275.865601 361.124329,275.347534 357.326538,279.148254 
	C352.501617,283.976837 352.186279,291.461823 356.569916,297.104950 
	C358.560974,299.151215 360.552063,301.197510 362.233032,303.601562 
	C358.809937,303.215912 354.892792,303.395782 352.754364,301.533325 
	C348.541321,297.863983 345.315063,293.061646 341.680634,288.727936 
	C341.450134,286.145538 341.219635,283.563171 341.088348,280.219482 
	C342.764313,272.000763 348.606415,270.817841 356.168671,270.786133 
	C347.671967,265.128204 338.180328,263.293152 333.550232,254.756058 
M425.545197,417.925171 
	C425.143250,418.207672 424.741302,418.490143 424.339325,418.772675 
	C424.549622,418.977081 424.759888,419.181488 424.970154,419.385864 
	C425.303986,418.918701 425.637817,418.451538 426.087677,417.927490 
	C426.087677,417.927490 426.014252,418.028198 425.545197,417.925171 
M417.720551,380.868439 
	C418.151733,379.808014 418.582947,378.747559 419.014160,377.687134 
	C418.718689,377.598175 418.423248,377.509247 418.127808,377.420288 
	C417.719574,378.597443 417.311371,379.774597 416.629669,381.194977 
	C416.582611,381.430389 416.535553,381.665771 416.488525,381.901215 
	C416.705658,381.646698 416.922791,381.392212 417.720551,380.868439 
M346.104950,282.337219 
	C346.567108,285.156311 347.029266,287.975372 347.491425,290.794464 
	C347.828186,290.708099 348.164948,290.621735 348.501740,290.535370 
	C349.300690,286.738373 350.099640,282.941376 351.514862,278.863037 
	C352.797546,278.197906 354.080200,277.532776 355.362885,276.867676 
	C347.954956,274.572693 346.091370,275.958954 346.104950,282.337219 
M416.277954,404.200348 
	C416.277954,409.367126 416.277954,414.533875 416.277954,419.700653 
	C416.986664,419.708954 417.695374,419.717285 418.404083,419.725616 
	C418.404083,414.282806 418.404083,408.839966 418.583038,402.672180 
	C418.379517,401.661133 418.175964,400.650085 417.972412,399.639038 
	C417.527557,399.688232 417.082703,399.737457 416.637848,399.786682 
	C416.553772,400.961182 416.469666,402.135681 416.277954,404.200348 
M317.316895,379.436279 
	C318.281555,377.610321 319.246216,375.784363 320.210876,373.958405 
	C319.720337,373.738373 319.229767,373.518341 318.739227,373.298340 
	C316.552582,376.824799 312.358276,379.582153 314.897461,385.676331 
	C315.122192,387.634674 314.890930,389.832336 315.745331,391.460205 
	C316.245148,392.412445 318.477661,392.455261 320.817017,393.182861 
	C319.330475,387.968079 318.206970,384.026672 317.316895,379.436279 
M418.477661,320.263733 
	C418.477661,314.702423 418.477661,309.141113 418.477661,303.579803 
	C417.825439,303.586273 417.173187,303.592743 416.520966,303.599213 
	C416.520966,309.539124 416.520966,315.479065 416.471039,322.301575 
	C416.405304,336.448212 416.339569,350.594849 416.172150,365.359436 
	C416.841431,365.439911 417.510712,365.520416 418.376038,364.604309 
	C418.287384,350.064880 418.198730,335.525482 418.477661,320.263733 
M389.099121,341.091675 
	C389.099121,344.529327 389.099121,347.966980 389.099121,351.788696 
	C391.303772,351.958832 393.877991,352.157501 396.990784,352.397736 
	C396.990784,347.479156 396.990784,342.854431 397.030121,337.427399 
	C397.074646,335.387329 396.917542,333.582001 394.044891,334.615295 
	C391.456421,335.546417 388.854523,336.440247 385.204376,337.720154 
	C387.124603,338.933655 388.138977,339.574707 389.099121,341.091675 
M375.023804,290.258392 
	C375.023804,294.189850 375.023804,298.121277 375.023804,302.063507 
	C384.980957,301.647827 384.984924,301.647827 384.983276,292.537201 
	C384.982910,290.389679 384.946014,288.242157 385.563873,285.800262 
	C388.220978,281.217621 383.814056,282.226471 382.845520,281.463989 
	C380.251617,282.932220 378.366150,284.425293 376.222443,285.111664 
	C373.115753,286.106354 373.655731,287.509125 375.023804,290.258392 
M440.435822,314.740784 
	C440.340759,313.712585 440.623169,312.098480 440.087891,311.753662 
	C437.155457,309.864502 434.022461,308.286682 430.958344,306.601929 
	C430.607697,306.932190 430.257050,307.262421 429.906403,307.592651 
	C430.313263,308.647003 430.720154,309.701324 430.482147,311.346954 
	C427.974457,320.897919 430.986511,328.106720 439.874634,333.056366 
	C439.874634,327.019196 439.874634,321.109955 440.435822,314.740784 
M368.266663,471.226898 
	C367.748596,469.944061 367.486938,467.764496 366.668915,467.530518 
	C362.704956,466.396912 358.591614,465.785583 354.084045,464.901489 
	C354.399323,466.259338 354.679840,467.467621 354.995361,469.593781 
	C355.420929,476.470398 355.846497,483.347015 356.296570,490.619995 
	C361.951416,492.333496 367.933777,494.162079 373.925903,495.958130 
	C383.006866,498.680023 383.009735,498.670441 389.535614,490.685974 
	C390.310944,489.824738 391.086273,488.963470 392.238373,487.683746 
	C388.513947,486.395538 385.609406,485.265472 382.630402,484.388214 
	C377.367706,482.838440 372.214874,481.188019 368.962433,475.405121 
	C368.645691,474.225983 368.328949,473.046875 368.266663,471.226898 
M409.723450,463.937500 
	C411.259308,463.025238 412.795166,462.113007 414.996185,460.805695 
	C415.888763,462.927612 416.709686,464.879120 417.598511,466.992096 
	C421.426147,466.485840 420.140198,463.981354 419.499329,461.633698 
	C419.042114,459.958923 418.364349,458.185242 418.527710,456.528961 
	C419.105682,450.667969 420.002960,444.838440 420.779205,438.997009 
	C420.265625,438.870209 419.752014,438.743408 419.238434,438.616638 
	C416.077179,441.350372 412.915894,444.084106 409.461578,447.071259 
	C407.021790,442.729797 405.015045,438.930939 402.795044,435.261078 
	C399.308899,429.498138 395.678955,423.822144 392.120361,417.392151 
	C395.235016,415.481659 397.988556,413.359985 397.032257,408.239532 
	C397.392395,404.675629 394.875763,404.449371 392.325073,404.001831 
	C382.473511,402.273285 372.640015,400.441742 362.369995,398.018921 
	C361.242157,382.094360 360.114288,366.169769 359.145447,349.513062 
	C359.280212,348.455444 359.414978,347.397827 359.658264,345.488739 
	C356.070709,346.678284 353.209412,347.627045 348.632996,349.144470 
	C350.873596,350.631500 351.969879,351.359070 353.031555,352.843384 
	C352.987000,353.598053 352.942474,354.352753 352.408722,355.525635 
	C350.236298,357.505432 348.087158,359.511597 345.884247,361.456848 
	C344.064636,363.063568 343.416626,364.565460 346.023499,366.853241 
	C347.020294,377.873779 348.272095,388.878784 348.945038,399.919067 
	C349.676453,411.917786 349.441803,411.932190 361.159058,414.107208 
	C362.779205,414.407959 364.420471,414.623718 366.016388,415.021393 
	C374.747284,417.196991 384.215881,416.629150 392.482666,422.530304 
	C392.034668,429.250153 392.591187,435.786438 396.012482,442.735199 
	C396.953369,455.177002 397.894257,467.618805 398.904541,480.978180 
	C403.955353,476.868408 408.119965,473.479736 412.513245,469.904999 
	C411.258179,467.770844 410.141022,465.871155 409.723450,463.937500 
M389.949097,430.363831 
	C388.504974,424.149780 386.390900,422.600769 378.971436,422.691132 
	C378.971436,424.107880 378.971436,425.535889 378.958496,427.852722 
	C380.381104,445.042175 381.803741,462.231598 383.251373,479.723206 
	C386.623749,480.852997 390.086823,482.013184 394.345673,483.439941 
	C392.808075,465.426025 391.344147,448.275269 389.949097,430.363831 
M383.297455,347.363129 
	C383.447876,346.045776 383.598297,344.728455 383.819794,342.788727 
	C380.102051,343.908325 377.276428,344.775513 374.440704,345.608398 
	C371.862305,346.365631 371.350525,347.806671 372.712524,350.887939 
	C373.872070,366.122437 375.031616,381.356934 376.217468,396.936829 
	C383.192780,398.036224 389.906097,399.094360 396.902283,400.197052 
	C396.902283,387.046021 396.902283,374.575653 396.968658,361.286438 
	C397.296631,358.276581 395.632721,357.009460 392.929230,357.095551 
	C390.009399,357.188568 387.099976,357.608887 384.053284,357.062103 
	C383.698303,354.045776 383.343353,351.029419 383.297455,347.363129 
M412.837921,300.619049 
	C415.047180,297.568451 414.757843,297.201935 409.586212,295.627258 
	C407.082458,297.209930 405.240143,298.775543 403.111481,299.616119 
	C400.586487,300.613159 400.526398,301.742706 401.848572,304.405975 
	C401.778198,306.067322 401.647003,307.728607 401.646362,309.389984 
	C401.634155,341.367950 401.698059,373.346161 401.564484,405.323578 
	C401.546661,409.579407 400.535278,413.830109 400.002686,418.085510 
	C399.904266,418.872009 399.576538,419.839844 399.894470,420.436157 
	C403.280670,426.787659 406.775818,433.080994 410.291595,439.482483 
	C414.620453,437.216553 416.212799,435.317261 413.734161,431.210358 
	C412.317291,428.862701 411.990082,425.574738 411.977875,422.706726 
	C411.880219,399.723602 411.952179,376.739594 412.018066,353.756012 
	C412.068634,336.105347 412.185669,318.454926 412.837921,300.619049 
M369.441467,395.881714 
	C370.449280,386.597443 366.660187,354.575348 363.452271,352.400604 
	C364.480835,365.354065 365.379303,377.636566 366.504700,389.898224 
	C366.694366,391.964386 367.863708,393.940643 369.441467,395.881714 
M427.513641,441.072571 
	C426.248077,439.216492 424.982544,437.360443 423.229614,434.789581 
	C423.229614,437.463593 423.229614,439.330780 423.229614,441.477753 
	C424.536774,441.477753 425.800049,441.477753 427.513641,441.072571 
M418.000427,388.318878 
	C418.099121,389.004303 418.197784,389.689758 418.296478,390.375183 
	C418.408051,390.353394 418.519653,390.331604 418.631226,390.309784 
	C418.631226,388.796936 418.631226,387.284058 418.631226,385.771179 
	C418.467255,385.781494 418.303314,385.791809 418.139343,385.802124 
	C418.093048,386.434753 418.046753,387.067413 418.000427,388.318878 
M416.528473,394.188599 
	C416.528473,394.889252 416.528473,395.589905 416.528473,396.290588 
	C416.845123,396.248016 417.161743,396.205475 417.478394,396.162903 
	C417.307312,395.551056 417.136230,394.939209 416.528473,394.188599 
M418.030701,374.157990 
	C418.186035,374.022614 418.341400,373.887238 418.496765,373.751892 
	C418.408112,373.662842 418.319458,373.573822 418.230804,373.484772 
	C418.095947,373.641113 417.961090,373.797485 418.030701,374.157990 
M320.593140,371.571167 
	C320.593140,371.571167 320.470673,371.664246 320.593140,371.571167 
M361.449615,345.518005 
	C361.449615,345.518005 361.419922,345.473938 361.449615,345.518005 
z"/>
<path fill="#B4B4B4" opacity="1.000000" stroke="none" 
	d="
M424.521759,375.687988 
	C424.458405,372.058075 424.395081,368.428223 424.965637,364.438110 
	C430.375702,363.365082 435.151886,362.652344 440.236572,362.111206 
	C442.059814,364.222626 443.574524,366.162445 444.937561,368.439209 
	C443.157837,371.022491 441.386414,373.181854 439.952637,375.545959 
	C439.013062,377.095215 437.983429,378.938446 437.976898,380.653748 
	C437.834778,418.104004 437.828491,455.554779 437.817108,493.005463 
	C437.816925,493.705505 438.071136,494.405609 438.380920,496.006165 
	C443.809113,488.907806 448.516724,482.830902 448.129028,473.974396 
	C447.641815,462.843414 448.006226,451.674927 448.013885,440.522614 
	C448.018250,434.160431 448.903137,432.724670 455.126617,432.242432 
	C459.878723,431.874176 461.392578,429.331268 462.120789,425.076965 
	C463.510010,422.112640 463.337585,421.918274 460.372955,422.167511 
	C456.300476,422.509918 452.222717,422.789307 448.069153,422.626770 
	C447.990753,403.975189 447.990417,385.792603 448.116760,367.359985 
	C448.528442,366.434784 448.813446,365.759613 449.214294,365.001709 
	C449.135895,364.855652 448.941620,364.792297 448.381958,364.697021 
	C445.194458,364.951813 443.188446,364.561188 444.985901,361.013672 
	C459.789032,358.544525 474.592194,356.075378 489.849670,353.530426 
	C489.753174,355.122711 490.128662,356.629913 489.550873,357.252441 
	C484.567413,362.622314 485.368011,369.278687 485.346466,375.674011 
	C485.259460,401.486786 485.395752,427.300537 485.244751,453.112732 
	C485.211090,458.871277 486.511963,463.325684 493.346161,465.130371 
	C490.940948,473.909698 483.559357,478.936981 479.172699,486.584534 
	C474.071381,481.771729 469.085632,477.425415 464.635773,472.586243 
	C463.677124,471.543793 464.397736,468.667511 464.822357,466.741211 
	C465.122314,465.380463 466.855377,464.207214 466.875519,462.933319 
	C467.047546,452.063232 466.974060,441.189331 466.974060,429.876007 
	C464.122437,433.548767 461.688599,436.683472 459.254730,439.818176 
	C458.829865,439.580688 458.404999,439.343201 457.980133,439.105713 
	C457.980133,455.904572 457.858948,472.705017 458.072815,489.501129 
	C458.120972,493.285522 459.337494,497.055054 460.251312,502.139801 
	C464.786591,505.371368 464.784271,505.370026 461.056213,511.814423 
	C459.644501,514.254639 458.246033,516.702515 456.485809,519.765991 
	C454.281006,516.538330 452.175018,513.721741 450.370117,510.723877 
	C449.064362,508.554932 448.954376,506.358490 451.562103,504.765472 
	C454.170563,503.171967 454.255188,501.125305 453.598053,498.130890 
	C453.068542,495.717957 454.919891,492.884918 454.944672,490.231110 
	C455.093781,474.245056 455.053894,458.256744 454.953491,442.269958 
	C454.946198,441.109467 453.958954,439.955139 453.427277,438.797943 
	C452.943115,438.897095 452.458923,438.996216 451.974762,439.095367 
	C451.974762,442.307220 451.974762,445.519043 451.974762,448.730896 
	C451.974762,458.389984 452.075439,468.050385 451.949127,477.707825 
	C451.792908,489.650665 445.358429,498.217499 436.459656,505.247375 
	C434.985748,506.411743 432.860016,506.930420 430.949951,507.279449 
	C430.126251,507.429932 428.624756,506.600464 428.270233,505.830017 
	C427.907227,505.041138 428.206787,503.234985 428.841919,502.810791 
	C434.403931,499.096436 433.686798,493.184937 433.807587,487.915710 
	C434.128235,473.934570 433.915588,459.941254 433.912415,445.022766 
	C433.869354,435.054260 433.828949,426.015747 433.853668,416.514038 
	C433.804108,404.492706 433.689453,392.934570 433.702209,381.014557 
	C432.956329,378.712006 432.082947,376.771332 431.179260,374.763245 
	C433.013947,373.300781 435.040558,371.685364 437.261475,370.050415 
	C437.636292,369.861603 437.816742,369.692261 437.997223,369.522919 
	C437.644012,369.654236 437.290802,369.785522 436.539734,369.875000 
	C432.268524,371.784729 428.395142,373.736359 424.521759,375.687988 
M467.261047,367.442291 
	C466.413910,366.603485 465.547394,365.038361 464.723236,365.060333 
	C462.117920,365.129852 458.645782,364.616119 458.997162,370.046326 
	C458.997162,386.245300 458.997162,402.444275 458.997162,418.749786 
	C461.927307,418.302856 464.314392,417.938782 466.919281,417.541473 
	C466.919281,400.887360 466.919281,384.487640 467.261047,367.442291 
M482.129242,361.272461 
	C481.983521,360.557373 481.776917,359.210785 481.700806,359.218109 
	C478.486023,359.528076 475.273407,359.908142 472.101715,360.500275 
	C471.910858,360.535919 472.058044,362.382233 472.051025,364.226746 
	C471.696808,369.015289 471.049683,373.803040 471.036438,378.592529 
	C470.957581,407.088593 471.106873,435.585480 470.950195,464.080811 
	C470.928314,468.056427 470.690277,471.582550 474.464630,474.126282 
	C476.364532,475.406647 478.068512,477.927368 480.317688,475.259399 
	C482.595428,472.557587 486.541351,470.477631 484.147827,465.542877 
	C482.623291,462.399872 481.282562,458.782806 481.247498,455.364014 
	C481.001282,431.368164 481.049805,407.368256 481.156464,383.370361 
	C481.188202,376.227081 481.706909,369.085968 482.129242,361.272461 
M452.022064,398.499573 
	C452.022064,405.601929 452.022064,412.704285 452.022064,419.806641 
	C452.545258,419.790039 453.068420,419.773468 453.591614,419.756866 
	C453.591614,403.242432 453.591614,386.727997 453.591614,370.213562 
	C453.070282,370.199860 452.548981,370.186127 452.027649,370.172394 
	C452.027649,379.281403 452.027649,388.390381 452.022064,398.499573 
z"/>
<path fill="#727272" opacity="1.000000" stroke="none" 
	d="
M385.932861,506.790466 
	C382.734497,506.002991 383.622681,504.175903 385.174866,502.608185 
	C393.556549,494.142700 402.044708,485.782654 410.423828,477.314697 
	C412.136108,475.584320 413.539246,473.548065 415.150482,471.572357 
	C416.994049,475.652710 419.076569,480.261963 421.922943,486.561829 
	C424.390747,483.454468 426.192200,481.186157 428.322998,478.868408 
	C428.772888,483.775391 429.737671,488.911255 428.735138,493.629059 
	C427.991516,497.128418 424.692719,500.084839 422.532074,503.283142 
	C421.960358,503.232788 421.388611,503.182434 420.816864,503.132080 
	C418.112701,495.699493 415.408508,488.266876 412.596008,480.536621 
	C402.816193,487.431702 394.426086,496.931244 385.932861,506.790466 
z"/>
<path fill="#6F6F6F" opacity="1.000000" stroke="none" 
	d="
M341.493530,289.179230 
	C345.315063,293.061646 348.541321,297.863983 352.754364,301.533325 
	C354.892792,303.395782 358.809937,303.215912 362.333923,303.905457 
	C362.744873,308.178162 362.763062,312.504913 362.740265,316.831421 
	C362.710144,322.546021 361.101135,323.695953 355.782410,321.173645 
	C346.767517,316.898499 341.688477,309.754242 341.284210,299.622406 
	C341.151520,296.297363 341.291260,292.961456 341.493530,289.179230 
z"/>
<path fill="#6F6F6F" opacity="1.000000" stroke="none" 
	d="
M370.109467,311.359863 
	C375.635559,305.566376 382.121735,305.283173 389.439758,307.000183 
	C389.849884,312.972412 389.849884,319.047333 389.849884,325.956482 
	C382.331879,322.880524 376.227600,322.990784 370.059296,329.381104 
	C370.059296,322.579224 370.059296,317.205841 370.109467,311.359863 
z"/>
<path fill="#727272" opacity="1.000000" stroke="none" 
	d="
M449.098450,365.084412 
	C448.813446,365.759613 448.528442,366.434784 447.750244,367.400696 
	C446.534485,367.828339 445.811859,367.965271 445.089233,368.102234 
	C443.574524,366.162445 442.059814,364.222626 440.288147,361.757751 
	C435.336487,356.076111 430.641785,350.919495 425.940125,345.310974 
	C426.321106,339.519165 426.709076,334.179260 427.097076,328.839325 
	C431.761353,334.203186 436.492340,339.511322 441.048676,344.965332 
	C442.387054,346.567413 443.230316,348.583221 444.538574,350.622559 
	C444.755035,353.932495 444.733429,357.029266 444.848877,360.569824 
	C443.188446,364.561188 445.194458,364.951813 448.468933,364.786682 
	C448.921265,364.908295 449.098450,365.084412 449.098450,365.084412 
z"/>
<path fill="#727272" opacity="1.000000" stroke="none" 
	d="
M356.892212,297.009094 
	C352.186279,291.461823 352.501617,283.976837 357.326538,279.148254 
	C361.124329,275.347534 368.059570,275.865601 374.483002,280.836639 
	C371.606567,281.003143 369.263245,281.138763 365.997711,281.327789 
	C371.492615,287.977142 370.116852,295.308655 369.668365,302.954529 
	C367.696503,300.692780 365.901001,297.963684 363.408813,294.175659 
	C361.982086,294.806183 359.598297,295.859711 356.892212,297.009094 
z"/>
<path fill="#6F6F6F" opacity="1.000000" stroke="none" 
	d="
M333.393982,255.215591 
	C338.180328,263.293152 347.671967,265.128204 356.168671,270.786133 
	C348.606415,270.817841 342.764313,272.000763 341.029053,279.787720 
	C335.619812,277.134583 333.367554,272.449585 333.268402,266.588745 
	C333.206909,262.951752 333.244598,259.313049 333.393982,255.215591 
z"/>
<path fill="#727272" opacity="1.000000" stroke="none" 
	d="
M390.290955,306.803528 
	C389.864014,300.880432 389.864014,294.949951 389.864014,288.248474 
	C393.969421,290.421539 397.933105,292.519562 401.896820,294.617615 
	C401.849243,294.959381 401.801697,295.301147 401.754120,295.642914 
	C399.147217,295.509094 396.540344,295.375244 392.796173,295.183014 
	C398.319000,302.377686 397.022614,309.992371 396.652588,317.934235 
	C395.069672,315.277313 393.675934,312.136841 392.208740,309.031128 
	C391.830292,308.230133 391.221069,307.538177 390.290955,306.803528 
z"/>
<path fill="#727272" opacity="1.000000" stroke="none" 
	d="
M346.892578,493.271362 
	C357.494293,496.042206 367.988342,498.984406 378.375366,502.265289 
	C379.544250,502.634552 380.108368,504.918427 380.927490,506.712860 
	C370.677246,504.049713 360.412231,501.110870 350.272003,497.790955 
	C348.793915,497.307037 347.911407,495.003967 346.892578,493.271362 
z"/>
<path fill="#6F6F6F" opacity="1.000000" stroke="none" 
	d="
M344.334045,416.214630 
	C352.319366,417.259247 360.312805,418.772003 368.340729,420.071747 
	C370.890991,420.484589 372.369781,421.415741 372.068054,424.580444 
	C364.007996,423.636749 355.963257,422.471008 348.029205,420.784271 
	C346.573975,420.474884 345.568604,418.049133 344.334045,416.214630 
z"/>
<path fill="#727272" opacity="1.000000" stroke="none" 
	d="
M310.410889,394.128418 
	C320.132141,399.827515 324.492920,399.532043 334.297302,392.103729 
	C334.689636,393.159882 335.195862,394.636108 334.668732,395.385529 
	C331.124481,400.424591 325.914948,402.367310 319.981873,402.205933 
	C314.990112,402.070129 311.471130,399.645325 310.410889,394.128418 
z"/>
<path fill="#151212" opacity="1.000000" stroke="none" 
	d="
M433.788544,416.977234 
	C433.828949,426.015747 433.869354,435.054260 433.847504,444.559845 
	C433.409027,445.034027 433.032837,445.041138 432.472595,444.690491 
	C432.470764,443.200317 432.652954,442.067932 432.835144,440.935547 
	C430.183502,438.189240 427.531891,435.442932 425.115967,432.137024 
	C427.451355,429.030701 429.799103,426.639862 431.540894,423.868256 
	C432.350800,422.579468 431.984070,420.551270 432.150757,418.858246 
	C432.075775,418.463257 432.000763,418.068268 432.201294,417.351471 
	C432.914062,417.012177 433.351318,416.994720 433.788544,416.977234 
z"/>
<path fill="#757575" opacity="1.000000" stroke="none" 
	d="
M298.427429,365.129547 
	C302.565948,367.652679 306.770172,367.382263 311.210114,365.691376 
	C315.033020,364.235504 318.989044,363.129089 323.405121,362.703857 
	C321.204742,364.728668 319.004364,366.753510 316.492981,368.877136 
	C313.648193,369.618988 311.109955,370.244965 308.581604,370.908600 
	C302.882660,372.404419 300.554077,371.178101 298.427429,365.129547 
z"/>
<path fill="#6F6F6F" opacity="1.000000" stroke="none" 
	d="
M445.725830,331.201782 
	C445.192657,326.589508 444.701965,321.830566 444.973785,317.115540 
	C445.074097,315.376495 446.971832,313.741089 448.404663,311.959778 
	C448.789825,316.672852 449.055176,321.500885 448.721313,326.287170 
	C448.606293,327.935883 446.997223,329.480377 445.725830,331.201782 
z"/>
<path fill="#8C8C8C" opacity="1.000000" stroke="none" 
	d="
M432.520508,441.030640 
	C432.652954,442.067932 432.470764,443.200317 432.190674,444.675751 
	C429.259857,447.675446 426.426880,450.332062 423.309967,453.017517 
	C423.437286,451.765411 423.511200,450.190857 424.322815,449.258392 
	C426.797943,446.414703 429.557220,443.818359 432.520508,441.030640 
z"/>
<path fill="#FDFDFD" opacity="1.000000" stroke="none" 
	d="
M412.273163,300.804382 
	C412.185669,318.454926 412.068634,336.105347 412.018066,353.756012 
	C411.952179,376.739594 411.880219,399.723602 411.977875,422.706726 
	C411.990082,425.574738 412.317291,428.862701 413.734161,431.210358 
	C416.212799,435.317261 414.620453,437.216553 410.291595,439.482483 
	C406.775818,433.080994 403.280670,426.787659 399.894470,420.436157 
	C399.576538,419.839844 399.904266,418.872009 400.002686,418.085510 
	C400.535278,413.830109 401.546661,409.579407 401.564484,405.323578 
	C401.698059,373.346161 401.634155,341.367950 401.646362,309.389984 
	C401.647003,307.728607 401.778198,306.067322 402.361572,304.029480 
	C405.000458,302.369293 407.126343,301.085541 409.869934,299.428802 
	C410.076294,299.546936 411.174713,300.175659 412.273163,300.804382 
z"/>
<path fill="#FEFEFE" opacity="1.000000" stroke="none" 
	d="
M392.086639,422.009064 
	C384.215881,416.629150 374.747284,417.196991 366.016388,415.021393 
	C364.420471,414.623718 362.779205,414.407959 361.159058,414.107208 
	C349.441803,411.932190 349.676453,411.917786 348.945038,399.919067 
	C348.272095,388.878784 347.020294,377.873779 346.261902,366.203369 
	C349.400238,362.541443 354.559692,360.913239 352.897949,355.107422 
	C352.942474,354.352753 352.987000,353.598053 353.380737,352.363647 
	C355.482086,351.337677 357.234283,350.791443 358.986450,350.245209 
	C360.114288,366.169769 361.242157,382.094360 362.594208,398.748901 
	C363.061279,403.756348 366.347137,404.223206 369.507355,404.730957 
	C378.665985,406.202576 387.834290,407.614227 396.998779,409.049408 
	C397.988556,413.359985 395.235016,415.481659 392.101135,418.140686 
	C392.083466,419.929138 392.085052,420.969116 392.086639,422.009064 
z"/>
<path fill="#050101" opacity="1.000000" stroke="none" 
	d="
M396.902283,362.105225 
	C396.902283,374.575653 396.902283,387.046021 396.902283,400.197052 
	C389.906097,399.094360 383.192780,398.036224 376.217468,396.936829 
	C375.031616,381.356934 373.872070,366.122437 373.220703,350.457642 
	C376.815399,349.355927 379.901886,348.684509 382.988403,348.013062 
	C383.343353,351.029419 383.698303,354.045776 384.071228,357.877502 
	C383.919678,361.306641 385.003113,362.093719 387.679688,361.857147 
	C390.722809,361.588165 393.825500,361.993195 396.902283,362.105225 
z"/>
<path fill="#070303" opacity="1.000000" stroke="none" 
	d="
M389.880249,431.124512 
	C391.344147,448.275269 392.808075,465.426025 394.345673,483.439941 
	C390.086823,482.013184 386.623749,480.852997 383.251373,479.723206 
	C381.803741,462.231598 380.381104,445.042175 379.367920,427.282776 
	C383.144958,428.183380 386.512573,429.653931 389.880249,431.124512 
z"/>
<path fill="#757575" opacity="1.000000" stroke="none" 
	d="
M392.284668,422.269684 
	C392.085052,420.969116 392.083466,419.929138 392.095917,418.499268 
	C395.678955,423.822144 399.308899,429.498138 402.795044,435.261078 
	C405.015045,438.930939 407.021790,442.729797 409.461578,447.071259 
	C412.915894,444.084106 416.077179,441.350372 419.238434,438.616638 
	C419.752014,438.743408 420.265625,438.870209 420.779205,438.997009 
	C420.002960,444.838440 419.105682,450.667969 418.527710,456.528961 
	C418.364349,458.185242 419.042114,459.958923 419.499329,461.633698 
	C420.140198,463.981354 421.426147,466.485840 417.598511,466.992096 
	C416.709686,464.879120 415.888763,462.927612 414.996185,460.805695 
	C412.795166,462.113007 411.259308,463.025238 409.210907,463.649414 
	C404.466797,456.174500 400.235260,448.987701 396.003723,441.800903 
	C392.591187,435.786438 392.034668,429.250153 392.284668,422.269684 
z"/>
<path fill="#FEFEFE" opacity="1.000000" stroke="none" 
	d="
M388.966248,491.041748 
	C383.009735,498.670441 383.006866,498.680023 373.925903,495.958130 
	C367.933777,494.162079 361.951416,492.333496 356.296570,490.619995 
	C355.846497,483.347015 355.420929,476.470398 355.355011,469.211243 
	C359.813843,469.841736 363.912994,470.854736 368.012177,471.867737 
	C368.328949,473.046875 368.645691,474.225983 369.033051,476.134705 
	C369.785889,482.434235 373.059723,485.591278 378.311310,487.175262 
	C381.923065,488.264740 385.418701,489.739319 388.966248,491.041748 
z"/>
<path fill="#050101" opacity="1.000000" stroke="none" 
	d="
M433.853668,416.514038 
	C433.351318,416.994720 432.914062,417.012177 432.149506,417.054138 
	C425.195465,414.000854 423.693909,408.551849 425.146362,401.275208 
	C428.618286,397.406250 428.677032,396.673645 425.931702,395.201599 
	C425.633698,389.784515 425.335693,384.367462 425.503326,378.459564 
	C426.768005,377.413849 427.567047,376.858978 428.014954,376.547943 
	C430.012695,378.282898 431.793732,379.829681 433.574768,381.376434 
	C433.689453,392.934570 433.804108,404.492706 433.853668,416.514038 
z"/>
<path fill="#FDFDFD" opacity="1.000000" stroke="none" 
	d="
M396.008118,442.268066 
	C400.235260,448.987701 404.466797,456.174500 408.861084,463.666382 
	C410.141022,465.871155 411.258179,467.770844 412.513245,469.904999 
	C408.119965,473.479736 403.955353,476.868408 398.904541,480.978180 
	C397.894257,467.618805 396.953369,455.177002 396.008118,442.268066 
z"/>
<path fill="#070303" opacity="1.000000" stroke="none" 
	d="
M425.947113,345.762878 
	C430.641785,350.919495 435.336487,356.076111 439.979614,361.586182 
	C435.151886,362.652344 430.375702,363.365082 425.146210,364.070496 
	C424.711121,358.338348 424.729340,352.613556 425.060303,346.411285 
	C425.564392,345.876862 425.755737,345.819855 425.947113,345.762878 
z"/>
<path fill="#FDFDFD" opacity="1.000000" stroke="none" 
	d="
M439.874634,315.200714 
	C439.874634,321.109955 439.874634,327.019196 439.874634,333.056366 
	C430.986511,328.106720 427.974457,320.897919 431.129883,311.180115 
	C434.476624,312.409088 437.175629,313.804901 439.874634,315.200714 
z"/>
<path fill="#7C7C7C" opacity="1.000000" stroke="none" 
	d="
M397.015503,408.644470 
	C387.834290,407.614227 378.665985,406.202576 369.507355,404.730957 
	C366.347137,404.223206 363.061279,403.756348 362.809113,399.063721 
	C372.640015,400.441742 382.473511,402.273285 392.325073,404.001831 
	C394.875763,404.449371 397.392395,404.675629 397.015503,408.644470 
z"/>
<path fill="#FEFEFE" opacity="1.000000" stroke="none" 
	d="
M384.925903,286.094635 
	C384.946014,288.242157 384.982910,290.389679 384.983276,292.537201 
	C384.984924,301.647827 384.980957,301.647827 375.023804,302.063507 
	C375.023804,298.121277 375.023804,294.189850 375.489075,289.801453 
	C378.150879,288.107666 380.347412,286.870850 383.196381,285.266632 
	C383.146393,285.242706 384.036133,285.668671 384.925903,286.094635 
z"/>
<path fill="#070303" opacity="1.000000" stroke="none" 
	d="
M369.010925,395.920074 
	C367.863708,393.940643 366.694366,391.964386 366.504700,389.898224 
	C365.379303,377.636566 364.480835,365.354065 363.452271,352.400604 
	C366.660187,354.575348 370.449280,386.597443 369.010925,395.920074 
z"/>
<path fill="#FEFEFE" opacity="1.000000" stroke="none" 
	d="
M396.990784,338.229675 
	C396.990784,342.854431 396.990784,347.479156 396.990784,352.397736 
	C393.877991,352.157501 391.303772,351.958832 389.099121,351.788696 
	C389.099121,347.966980 389.099121,344.529327 389.497253,340.591614 
	C392.260498,339.470917 394.625641,338.850311 396.990784,338.229675 
z"/>
<path fill="#7C7C7C" opacity="1.000000" stroke="none" 
	d="
M389.250916,490.863861 
	C385.418701,489.739319 381.923065,488.264740 378.311310,487.175262 
	C373.059723,485.591278 369.785889,482.434235 369.113586,476.493774 
	C372.214874,481.188019 377.367706,482.838440 382.630402,484.388214 
	C385.609406,485.265472 388.513947,486.395538 392.238373,487.683746 
	C391.086273,488.963470 390.310944,489.824738 389.250916,490.863861 
z"/>
<path fill="#050101" opacity="1.000000" stroke="none" 
	d="
M416.273834,364.741486 
	C416.339569,350.594849 416.405304,336.448212 416.761993,321.786133 
	C417.405334,321.175842 417.757690,321.080933 418.110077,320.986053 
	C418.198730,335.525482 418.287384,350.064880 417.923279,365.060974 
	C417.071655,365.258881 416.672760,365.000183 416.273834,364.741486 
z"/>
<path fill="#7C7C7C" opacity="1.000000" stroke="none" 
	d="
M368.139404,471.547302 
	C363.912994,470.854736 359.813843,469.841736 355.337524,468.752319 
	C354.679840,467.467621 354.399323,466.259338 354.084045,464.901489 
	C358.591614,465.785583 362.704956,466.396912 366.668915,467.530518 
	C367.486938,467.764496 367.748596,469.944061 368.139404,471.547302 
z"/>
<path fill="#8C8C8C" opacity="1.000000" stroke="none" 
	d="
M425.940125,345.310974 
	C425.755737,345.819855 425.564392,345.876862 425.073578,345.940125 
	C424.504425,340.012115 424.116760,334.080231 423.996338,328.142944 
	C423.860504,321.444153 423.965057,314.740509 424.837097,308.090912 
	C425.465942,314.788971 426.094788,321.487000 426.910339,328.512207 
	C426.709076,334.179260 426.321106,339.519165 425.940125,345.310974 
z"/>
<path fill="#727272" opacity="1.000000" stroke="none" 
	d="
M433.702209,381.014557 
	C431.793732,379.829681 430.012695,378.282898 428.014954,376.547943 
	C427.567047,376.858978 426.768005,377.413849 425.656372,378.017212 
	C425.049286,377.448547 424.754791,376.831390 424.491028,375.951111 
	C428.395142,373.736359 432.268524,371.784729 436.571381,369.913879 
	C437.000885,369.994659 437.067139,370.069916 437.067139,370.069916 
	C435.040558,371.685364 433.013947,373.300781 431.179260,374.763245 
	C432.082947,376.771332 432.956329,378.712006 433.702209,381.014557 
z"/>
<path fill="#6F6F6F" opacity="1.000000" stroke="none" 
	d="
M396.935486,361.695831 
	C393.825500,361.993195 390.722809,361.588165 387.679688,361.857147 
	C385.003113,362.093719 383.919678,361.306641 384.137604,358.289673 
	C387.099976,357.608887 390.009399,357.188568 392.929230,357.095551 
	C395.632721,357.009460 397.296631,358.276581 396.935486,361.695831 
z"/>
<path fill="#757575" opacity="1.000000" stroke="none" 
	d="
M383.142944,347.688110 
	C379.901886,348.684509 376.815399,349.355927 373.326508,350.006775 
	C371.350525,347.806671 371.862305,346.365631 374.440704,345.608398 
	C377.276428,344.775513 380.102051,343.908325 383.819794,342.788727 
	C383.598297,344.728455 383.447876,346.045776 383.142944,347.688110 
z"/>
<path fill="#6F6F6F" opacity="1.000000" stroke="none" 
	d="
M418.293884,320.624878 
	C417.757690,321.080933 417.405334,321.175842 416.786957,321.344849 
	C416.520966,315.479065 416.520966,309.539124 416.520966,303.599213 
	C417.173187,303.592743 417.825439,303.586273 418.477661,303.579803 
	C418.477661,309.141113 418.477661,314.702423 418.293884,320.624878 
z"/>
<path fill="#FDFDFD" opacity="1.000000" stroke="none" 
	d="
M317.083435,380.085266 
	C318.206970,384.026672 319.330475,387.968079 320.817017,393.182861 
	C318.477661,392.455261 316.245148,392.412445 315.745331,391.460205 
	C314.890930,389.832336 315.122192,387.634674 314.983398,384.977020 
	C315.740692,382.880219 316.412048,381.482758 317.083435,380.085266 
z"/>
<path fill="#7C7C7C" opacity="1.000000" stroke="none" 
	d="
M385.244873,285.947449 
	C384.036133,285.668671 383.146393,285.242706 383.196381,285.266632 
	C380.347412,286.870850 378.150879,288.107666 375.559937,289.367676 
	C373.655731,287.509125 373.115753,286.106354 376.222443,285.111664 
	C378.366150,284.425293 380.251617,282.932220 382.845520,281.463989 
	C383.814056,282.226471 388.220978,281.217621 385.244873,285.947449 
z"/>
<path fill="#7C7C7C" opacity="1.000000" stroke="none" 
	d="
M412.555542,300.711731 
	C411.174713,300.175659 410.076294,299.546936 409.869934,299.428802 
	C407.126343,301.085541 405.000458,302.369293 402.470642,303.606384 
	C400.526398,301.742706 400.586487,300.613159 403.111481,299.616119 
	C405.240143,298.775543 407.082458,297.209930 409.586212,295.627258 
	C414.757843,297.201935 415.047180,297.568451 412.555542,300.711731 
z"/>
<path fill="#757575" opacity="1.000000" stroke="none" 
	d="
M389.914673,430.744171 
	C386.512573,429.653931 383.144958,428.183380 379.374390,426.838379 
	C378.971436,425.535889 378.971436,424.107880 378.971436,422.691132 
	C386.390900,422.600769 388.504974,424.149780 389.914673,430.744171 
z"/>
<path fill="#7C7C7C" opacity="1.000000" stroke="none" 
	d="
M397.010437,337.828552 
	C394.625641,338.850311 392.260498,339.470917 389.524353,340.153625 
	C388.138977,339.574707 387.124603,338.933655 385.204376,337.720154 
	C388.854523,336.440247 391.456421,335.546417 394.044891,334.615295 
	C396.917542,333.582001 397.074646,335.387329 397.010437,337.828552 
z"/>
<path fill="#7C7C7C" opacity="1.000000" stroke="none" 
	d="
M440.155212,314.970764 
	C437.175629,313.804901 434.476624,312.409088 431.452332,310.884460 
	C430.720154,309.701324 430.313263,308.647003 429.906403,307.592651 
	C430.257050,307.262421 430.607697,306.932190 430.958344,306.601929 
	C434.022461,308.286682 437.155457,309.864502 440.087891,311.753662 
	C440.623169,312.098480 440.340759,313.712585 440.155212,314.970764 
z"/>
<path fill="#151212" opacity="1.000000" stroke="none" 
	d="
M418.404083,403.397156 
	C418.404083,408.839966 418.404083,414.282806 418.404083,419.725616 
	C417.695374,419.717285 416.986664,419.708954 416.277954,419.700653 
	C416.277954,414.533875 416.277954,409.367126 416.587524,403.759277 
	C417.399414,403.344513 417.901764,403.370819 418.404083,403.397156 
z"/>
<path fill="#7C7C7C" opacity="1.000000" stroke="none" 
	d="
M352.653320,355.316528 
	C354.559692,360.913239 349.400238,362.541443 346.256348,365.783630 
	C343.416626,364.565460 344.064636,363.063568 345.884247,361.456848 
	C348.087158,359.511597 350.236298,357.505432 352.653320,355.316528 
z"/>
<path fill="#7C7C7C" opacity="1.000000" stroke="none" 
	d="
M359.065948,349.879150 
	C357.234283,350.791443 355.482086,351.337677 353.398041,351.985291 
	C351.969879,351.359070 350.873596,350.631500 348.632996,349.144470 
	C353.209412,347.627045 356.070709,346.678284 359.658264,345.488739 
	C359.414978,347.397827 359.280212,348.455444 359.065948,349.879150 
z"/>
<path fill="#FDFDFD" opacity="1.000000" stroke="none" 
	d="
M350.898621,279.144379 
	C350.099640,282.941376 349.300690,286.738373 348.501740,290.535370 
	C348.164948,290.621735 347.828186,290.708099 347.491425,290.794464 
	C347.029266,287.975372 346.567108,285.156311 346.342407,281.735626 
	C348.019409,280.470825 349.459015,279.807617 350.898621,279.144379 
z"/>
<path fill="#7C7C7C" opacity="1.000000" stroke="none" 
	d="
M432.034912,419.191010 
	C431.984070,420.551270 432.350800,422.579468 431.540894,423.868256 
	C429.799103,426.639862 427.451355,429.030701 425.082336,431.784454 
	C424.175201,426.122009 429.178253,423.467590 432.034912,419.191010 
z"/>
<path fill="#7C7C7C" opacity="1.000000" stroke="none" 
	d="
M351.206726,279.003723 
	C349.459015,279.807617 348.019409,280.470825 346.299347,281.347137 
	C346.091370,275.958954 347.954956,274.572693 355.362885,276.867676 
	C354.080200,277.532776 352.797546,278.197906 351.206726,279.003723 
z"/>
<path fill="#7C7C7C" opacity="1.000000" stroke="none" 
	d="
M317.200165,379.760773 
	C316.412048,381.482758 315.740692,382.880219 315.003571,384.606140 
	C312.358276,379.582153 316.552582,376.824799 318.739227,373.298340 
	C319.229767,373.518341 319.720337,373.738373 320.210876,373.958405 
	C319.246216,375.784363 318.281555,377.610321 317.200165,379.760773 
z"/>
<path fill="#7C7C7C" opacity="1.000000" stroke="none" 
	d="
M427.288513,441.275146 
	C425.800049,441.477753 424.536774,441.477753 423.229614,441.477753 
	C423.229614,439.330780 423.229614,437.463593 423.229614,434.789581 
	C424.982544,437.360443 426.248077,439.216492 427.288513,441.275146 
z"/>
<path fill="#8C8C8C" opacity="1.000000" stroke="none" 
	d="
M425.850159,395.512848 
	C428.677032,396.673645 428.618286,397.406250 425.181213,400.817261 
	C425.168121,399.262299 425.468353,397.543182 425.850159,395.512848 
z"/>
<path fill="#6F6F6F" opacity="1.000000" stroke="none" 
	d="
M418.493561,403.034668 
	C417.901764,403.370819 417.399414,403.344513 416.641327,403.314178 
	C416.469666,402.135681 416.553772,400.961182 416.637848,399.786682 
	C417.082703,399.737457 417.527557,399.688232 417.972412,399.639038 
	C418.175964,400.650085 418.379517,401.661133 418.493561,403.034668 
z"/>
<path fill="#B4B4B4" opacity="1.000000" stroke="none" 
	d="
M418.000427,388.009460 
	C418.046753,387.067413 418.093048,386.434753 418.139343,385.802124 
	C418.303314,385.791809 418.467255,385.781494 418.631226,385.771179 
	C418.631226,387.284058 418.631226,388.796936 418.631226,390.309784 
	C418.519653,390.331604 418.408051,390.353394 418.296478,390.375183 
	C418.197784,389.689758 418.099121,389.004303 418.000427,388.009460 
z"/>
<path fill="#B4B4B4" opacity="1.000000" stroke="none" 
	d="
M416.903198,380.951752 
	C417.311371,379.774597 417.719574,378.597443 418.127808,377.420288 
	C418.423248,377.509247 418.718689,377.598175 419.014160,377.687134 
	C418.582947,378.747559 418.151733,379.808014 417.372833,380.954315 
	C417.025116,381.040192 416.903198,380.951752 416.903198,380.951752 
z"/>
<path fill="#B4B4B4" opacity="1.000000" stroke="none" 
	d="
M416.746826,394.257996 
	C417.136230,394.939209 417.307312,395.551056 417.478394,396.162903 
	C417.161743,396.205475 416.845123,396.248016 416.528473,396.290588 
	C416.528473,395.589905 416.528473,394.889252 416.746826,394.257996 
z"/>
<path fill="#8C8C8C" opacity="1.000000" stroke="none" 
	d="
M425.971680,417.984406 
	C425.637817,418.451538 425.303986,418.918701 424.970154,419.385864 
	C424.759888,419.181488 424.549622,418.977081 424.339355,418.772644 
	C424.741302,418.490143 425.143250,418.207672 425.771118,417.963806 
	C425.997009,418.002411 425.971680,417.984406 425.971680,417.984406 
z"/>
<path fill="#B4B4B4" opacity="1.000000" stroke="none" 
	d="
M417.928467,374.055908 
	C417.961090,373.797485 418.095947,373.641113 418.230804,373.484772 
	C418.319458,373.573822 418.408112,373.662842 418.496765,373.751892 
	C418.341400,373.887238 418.186035,374.022614 417.928467,374.055908 
z"/>
<path fill="#B4B4B4" opacity="1.000000" stroke="none" 
	d="
M417.082520,381.088959 
	C416.922791,381.392212 416.705658,381.646698 416.488525,381.901184 
	C416.535553,381.665771 416.582611,381.430389 416.766418,381.073364 
	C416.903198,380.951752 417.025116,381.040192 417.082520,381.088959 
z"/>
<path fill="#6F6F6F" opacity="1.000000" stroke="none" 
	d="
M416.222992,365.050476 
	C416.672760,365.000183 417.071655,365.258881 417.825256,365.559265 
	C417.510712,365.520416 416.841431,365.439911 416.222992,365.050476 
z"/>
<path fill="#8C8C8C" opacity="1.000000" stroke="none" 
	d="
M426.005615,418.015320 
	C426.014252,418.028198 426.087677,417.927490 426.029663,417.955933 
	C425.971680,417.984406 425.997009,418.002411 426.005615,418.015320 
z"/>
<path fill="#7C7C7C" opacity="1.000000" stroke="none" 
	d="
M320.531921,371.617706 
	C320.470673,371.664246 320.593140,371.571167 320.531921,371.617706 
z"/>
<path fill="#7C7C7C" opacity="1.000000" stroke="none" 
	d="
M361.434753,345.495972 
	C361.419922,345.473938 361.449615,345.518005 361.434753,345.495972 
z"/>
<path fill="#FEFEFE" opacity="1.000000" stroke="none" 
	d="
M444.937561,368.439209 
	C445.811859,367.965271 446.534485,367.828339 447.623596,367.650696 
	C447.990417,385.792603 447.990753,403.975189 448.075256,422.994324 
	C449.946198,424.790100 451.694122,426.442749 453.528900,426.545532 
	C456.261658,426.698608 459.055695,425.757568 461.823669,425.282104 
	C461.392578,429.331268 459.878723,431.874176 455.126617,432.242432 
	C448.903137,432.724670 448.018250,434.160431 448.013885,440.522614 
	C448.006226,451.674927 447.641815,462.843414 448.129028,473.974396 
	C448.516724,482.830902 443.809113,488.907806 438.380920,496.006165 
	C438.071136,494.405609 437.816925,493.705505 437.817108,493.005463 
	C437.828491,455.554779 437.834778,418.104004 437.976898,380.653748 
	C437.983429,378.938446 439.013062,377.095215 439.952637,375.545959 
	C441.386414,373.181854 443.157837,371.022491 444.937561,368.439209 
z"/>
<path fill="#FEFEFE" opacity="1.000000" stroke="none" 
	d="
M482.002472,361.943848 
	C481.706909,369.085968 481.188202,376.227081 481.156464,383.370361 
	C481.049805,407.368256 481.001282,431.368164 481.247498,455.364014 
	C481.282562,458.782806 482.623291,462.399872 484.147827,465.542877 
	C486.541351,470.477631 482.595428,472.557587 480.317688,475.259399 
	C478.068512,477.927368 476.364532,475.406647 474.464630,474.126282 
	C470.690277,471.582550 470.928314,468.056427 470.950195,464.080811 
	C471.106873,435.585480 470.957581,407.088593 471.036438,378.592529 
	C471.049683,373.803040 471.696808,369.015289 472.471436,363.734619 
	C475.928711,362.809601 478.965607,362.376709 482.002472,361.943848 
z"/>
<path fill="#050101" opacity="1.000000" stroke="none" 
	d="
M466.919281,368.087921 
	C466.919281,384.487640 466.919281,400.887360 466.919281,417.541473 
	C464.314392,417.938782 461.927307,418.302856 458.997162,418.749786 
	C458.997162,402.444275 458.997162,386.245300 459.453613,369.551788 
	C462.246460,368.734131 464.582855,368.411011 466.919281,368.087921 
z"/>
<path fill="#151212" opacity="1.000000" stroke="none" 
	d="
M452.024841,397.999481 
	C452.027649,388.390381 452.027649,379.281403 452.027649,370.172394 
	C452.548981,370.186127 453.070282,370.199860 453.591614,370.213562 
	C453.591614,386.727997 453.591614,403.242432 453.591614,419.756866 
	C453.068420,419.773468 452.545258,419.790039 452.022064,419.806641 
	C452.022064,412.704285 452.022064,405.601929 452.024841,397.999481 
z"/>
<path fill="#7C7C7C" opacity="1.000000" stroke="none" 
	d="
M462.120789,425.076965 
	C459.055695,425.757568 456.261658,426.698608 453.528900,426.545532 
	C451.694122,426.442749 449.946198,424.790100 448.153320,423.463318 
	C452.222717,422.789307 456.300476,422.509918 460.372955,422.167511 
	C463.337585,421.918274 463.510010,422.112640 462.120789,425.076965 
z"/>
<path fill="#7C7C7C" opacity="1.000000" stroke="none" 
	d="
M482.065857,361.608154 
	C478.965607,362.376709 475.928711,362.809601 472.469910,363.314270 
	C472.058044,362.382233 471.910858,360.535919 472.101715,360.500275 
	C475.273407,359.908142 478.486023,359.528076 481.700806,359.218109 
	C481.776917,359.210785 481.983521,360.557373 482.065857,361.608154 
z"/>
<path fill="#727272" opacity="1.000000" stroke="none" 
	d="
M467.090149,367.765106 
	C464.582855,368.411011 462.246460,368.734131 459.510498,369.094421 
	C458.645782,364.616119 462.117920,365.129852 464.723236,365.060333 
	C465.547394,365.038361 466.413910,366.603485 467.090149,367.765106 
z"/>
<path fill="#727272" opacity="1.000000" stroke="none" 
	d="
M436.969238,369.955750 
	C437.290802,369.785522 437.644012,369.654236 437.997223,369.522919 
	C437.816742,369.692261 437.636292,369.861603 437.261475,370.050415 
	C437.067139,370.069916 437.000885,369.994659 436.969238,369.955750 
z"/>
<path fill="#727272" opacity="1.000000" stroke="none" 
	d="
M448.834290,364.818604 
	C448.941620,364.792297 449.135895,364.855652 449.214294,365.001709 
	C449.098450,365.084412 448.921265,364.908295 448.834290,364.818604 
z"/>
</svg>
