<svg version="1.1" id="Layer_1" xmlns="http://www.w3.org/2000/svg" xmlns:xlink="http://www.w3.org/1999/xlink" x="0px" y="0px"
	 width="100%" viewBox="0 0 290 87" enable-background="new 0 0 290 87" xml:space="preserve">
<path fill="#FCFCFC" opacity="1.000000" stroke="none" 
	d="
M50.000000,1.000000 
	C130.271194,1.000000 210.542404,1.000000 290.906799,1.000000 
	C290.906799,29.915171 290.906799,58.830742 290.906799,88.000000 
	C211.979294,88.000000 132.958298,88.000000 53.568314,87.628464 
	C53.503525,87.129379 53.796597,86.950714 54.113556,86.881622 
	C73.489410,82.657158 88.112427,66.167435 88.934074,47.604500 
	C89.842110,27.089905 77.412590,9.841847 57.414696,3.768995 
	C54.895184,3.003885 52.469276,1.930537 50.000000,1.000000 
M282.377411,38.421658 
	C282.377411,38.421658 282.652161,38.514019 282.707703,38.480095 
	C282.707703,38.480095 282.638336,38.472076 282.347931,39.466709 
	C283.220215,39.845318 284.092499,40.223927 284.875824,41.103596 
	C285.311859,41.070591 285.747864,41.037590 286.818115,40.999161 
	C287.240540,40.986423 287.662994,40.973686 288.728607,40.731239 
	C288.813507,39.829266 288.898407,38.927292 288.832153,37.420834 
	C287.880524,37.317406 286.928894,37.213982 285.518829,36.944721 
	C285.518829,36.944721 285.048584,36.816036 285.012085,36.147507 
	C284.627258,35.579449 284.242462,35.011391 283.857666,34.443329 
	C283.555969,35.267773 283.254242,36.092213 283.046631,36.988586 
	C283.046631,36.988586 283.065735,37.105450 282.597412,37.025524 
	C282.481873,37.403984 282.366333,37.782444 282.377411,38.421658 
M265.820557,49.225700 
	C265.174683,50.848484 264.528809,52.471272 263.571259,54.877087 
	C260.744904,47.697079 258.263763,41.394146 255.650711,34.756042 
	C251.807129,34.756042 248.057281,34.756042 244.120361,34.756042 
	C244.294495,28.775507 248.564896,30.408329 251.593430,30.369682 
	C251.593430,28.184452 251.593430,26.398746 251.593430,24.669458 
	C241.968842,22.158468 239.193832,23.826685 236.695984,32.900864 
	C236.356476,34.134232 234.432785,34.931526 233.089996,36.058861 
	C233.089996,37.364307 233.089996,39.013145 233.089996,40.800465 
	C234.324097,41.181667 235.515732,41.549747 237.025620,42.016132 
	C237.025620,49.581661 237.025620,57.017040 237.025620,64.616699 
	C239.487381,64.616699 241.556992,64.616699 244.146423,64.616699 
	C244.146423,56.814190 244.146423,49.239902 244.146423,41.856426 
	C248.632965,40.382015 251.077805,41.435566 252.507935,45.692429 
	C254.355530,51.191887 256.884857,56.459404 259.028015,61.863522 
	C260.426392,65.389618 259.046417,67.289734 255.364731,66.985992 
	C254.286880,66.897072 253.237732,66.460304 252.131348,66.171448 
	C251.297287,68.063545 250.569580,69.714371 249.848984,71.349075 
	C258.077820,75.715393 262.948822,74.186440 266.458435,66.233681 
	C267.665253,63.499081 268.765900,60.714985 269.835602,57.923050 
	C272.706970,50.428509 275.535431,42.917519 278.471954,35.172943 
	C275.458832,35.172943 273.208038,35.172943 270.939453,35.172943 
	C269.241333,39.763088 267.630402,44.117535 265.820557,49.225700 
M165.741638,49.574818 
	C165.509323,35.717136 152.032150,30.128819 143.261688,37.548733 
	C141.564987,32.988918 138.171402,35.329994 135.025238,35.148754 
	C135.025238,41.723007 135.025253,47.865520 135.025253,54.008030 
	C135.025253,60.291969 135.025238,66.575912 135.025238,72.948509 
	C137.783539,72.948509 140.020187,72.948509 142.652588,72.948509 
	C142.652588,69.225777 142.652588,65.793846 142.652588,62.285969 
	C145.472595,63.288475 147.854431,64.642975 150.359619,64.933380 
	C158.863266,65.919121 163.906631,60.986176 165.741638,49.574818 
M116.240967,48.163216 
	C117.531776,48.485157 119.104202,48.452393 120.052742,49.205452 
	C121.835976,50.621193 123.258972,52.490696 124.831757,54.171524 
	C122.818420,55.479404 120.698898,58.012348 118.813095,57.848892 
	C114.422241,57.468304 110.143951,55.789150 105.278717,54.491791 
	C104.490967,55.453754 103.173241,57.062889 101.871185,58.652901 
	C107.935822,64.009125 114.714363,66.075951 121.913399,64.930420 
	C127.721695,64.006172 131.861710,59.870499 132.339111,54.515629 
	C132.846619,48.823017 130.462387,45.308491 124.244995,43.005325 
	C121.141548,41.855690 117.756355,41.358944 114.816513,39.918194 
	C113.210808,39.131275 112.268402,36.990868 111.026871,35.460846 
	C112.762352,34.224751 114.594139,31.845129 116.214020,31.981560 
	C120.034515,32.303329 123.754051,33.823807 127.890121,34.962891 
	C128.767807,33.722626 129.970978,32.022411 131.754730,29.501760 
	C127.852669,27.949100 124.637131,26.241549 121.208961,25.390635 
	C112.929153,23.335485 105.351311,27.053326 103.712868,33.577354 
	C101.894730,40.816856 104.895340,44.812111 114.470749,47.885563 
	C114.783775,47.986031 115.125778,47.996204 116.240967,48.163216 
M193.301498,61.919437 
	C199.540802,56.156887 201.108276,48.304852 197.327469,41.752026 
	C193.744644,35.542370 185.877579,32.743736 178.675568,35.116802 
	C171.392273,37.516651 167.236115,43.966934 167.946274,51.673759 
	C169.040955,63.553509 183.517868,69.002342 193.301498,61.919437 
M206.319702,63.199581 
	C210.100616,65.972168 214.314514,65.888107 218.029099,63.753258 
	C219.222305,63.067497 218.914322,59.769691 219.338486,57.415157 
	C212.417740,58.612026 211.320511,58.319515 211.139832,54.929993 
	C210.904099,50.507404 211.082138,46.062759 211.082138,41.215805 
	C214.108337,41.215805 216.529816,41.215805 219.043884,41.215805 
	C219.043884,38.893364 219.043884,37.018448 219.043884,35.058720 
	C216.292236,34.930733 213.860580,34.817635 211.006485,34.684883 
	C211.006485,31.972322 211.006485,29.562855 211.006485,27.059818 
	C208.467682,27.059818 206.377640,27.059818 204.353943,27.059818 
	C202.660110,29.890068 206.561691,35.166153 200.342377,35.352764 
	C199.851181,38.573120 199.076431,41.725086 203.873825,41.761967 
	C203.873825,44.576424 203.665466,47.089043 203.919647,49.553967 
	C204.370819,53.929276 205.102570,58.275646 206.319702,63.199581 
M229.878677,63.052853 
	C229.878677,53.777836 229.878677,44.502823 229.878677,35.170742 
	C227.160324,35.170742 224.935806,35.170742 222.755859,35.170742 
	C222.755859,45.203247 222.755859,54.916363 222.755859,65.332054 
	C225.399506,64.809937 227.567368,64.381783 229.878677,63.052853 
M228.038864,30.839149 
	C230.311172,29.117088 232.346024,26.972376 230.053925,24.279139 
	C228.936050,22.965643 226.292648,21.984732 224.688385,22.356728 
	C223.407028,22.653852 221.859024,25.212265 221.831726,26.791203 
	C221.776199,30.004547 224.088867,31.344608 228.038864,30.839149 
M282.726349,41.354603 
	C282.726349,41.354603 282.421417,41.166492 282.421417,41.166492 
	C282.421417,41.166492 282.457245,41.545204 282.726349,41.354603 
z"/>
<path fill="#050505" opacity="1.000000" stroke="none" 
	d="
M49.550018,1.000000 
	C52.469276,1.930537 54.895184,3.003885 57.414696,3.768995 
	C77.412590,9.841847 89.842110,27.089905 88.934074,47.604500 
	C88.112427,66.167435 73.489410,82.657158 54.113556,86.881622 
	C53.796597,86.950714 53.503525,87.129379 53.099655,87.628464 
	C52.555553,88.000000 52.111111,88.000000 51.217125,87.670784 
	C49.855854,87.281181 48.944126,87.220795 47.628746,87.097900 
	C46.138805,87.079781 45.052517,87.124161 43.619720,87.108948 
	C42.515469,87.366226 41.757736,87.683113 41.000000,88.000000 
	C39.933331,88.000000 38.866661,88.000000 37.394955,87.627609 
	C35.921448,86.843491 34.866814,86.390602 33.782444,86.026192 
	C15.795442,79.981476 3.617267,64.335976 2.971764,46.425400 
	C2.231732,25.891983 16.241936,8.060139 37.040363,2.949018 
	C38.435635,2.606136 39.683548,1.663623 41.000000,1.000000 
	C43.700012,1.000000 46.400028,1.000000 49.550018,1.000000 
M38.540333,32.829174 
	C49.803375,32.696682 60.658146,34.289043 70.873871,39.515137 
	C72.292969,40.241116 75.630547,39.449387 76.676201,38.192432 
	C78.646812,35.823605 77.101707,33.545948 74.483688,32.262295 
	C57.024822,23.701948 38.793724,22.717245 20.161774,27.166592 
	C18.731014,27.508259 17.923889,30.461437 16.826895,32.200764 
	C18.662510,33.111034 20.538721,34.859074 22.326033,34.772472 
	C27.425922,34.525352 32.489651,33.531921 38.540333,32.829174 
M57.986015,49.285114 
	C60.089596,50.253071 62.257328,51.104691 64.279762,52.219814 
	C66.566406,53.480614 68.952797,54.962212 70.694832,51.896854 
	C72.477242,48.760437 69.811768,47.398354 67.592567,46.263237 
	C53.416496,39.012173 38.536541,37.392605 23.152908,41.293938 
	C21.618946,41.682949 19.464895,44.107197 19.544466,45.473549 
	C19.726969,48.607491 22.547235,48.527508 24.923586,47.838528 
	C35.837299,44.674305 46.573086,45.681431 57.986015,49.285114 
M65.819901,61.749413 
	C65.309059,61.123749 64.922142,60.286968 64.269066,59.903614 
	C51.351696,52.321106 37.608040,51.604107 23.431589,55.285385 
	C22.512693,55.523998 21.332357,57.161247 21.398664,58.065384 
	C21.456959,58.860283 23.013691,59.970917 24.053226,60.164104 
	C25.458858,60.425320 27.016802,60.023266 28.485027,59.766453 
	C39.726429,57.800148 50.613926,58.408062 60.769188,64.213020 
	C63.207306,65.606697 64.843582,65.117920 65.819901,61.749413 
z"/>
<path fill="#FBFBFB" opacity="1.000000" stroke="none" 
	d="
M40.531342,1.000000 
	C39.683548,1.663623 38.435635,2.606136 37.040363,2.949018 
	C16.241936,8.060139 2.231732,25.891983 2.971764,46.425400 
	C3.617267,64.335976 15.795442,79.981476 33.782444,86.026192 
	C34.866814,86.390602 35.921448,86.843491 36.994957,87.627609 
	C25.032291,88.000000 13.064583,88.000000 1.048437,88.000000 
	C1.048437,59.110397 1.048437,30.220694 1.048437,1.000000 
	C14.019025,1.000000 27.040854,1.000000 40.531342,1.000000 
z"/>
<path fill="#777777" opacity="1.000000" stroke="none" 
	d="
M43.966232,87.168549 
	C45.052517,87.124161 46.138805,87.079781 47.614723,87.307472 
	C48.004353,87.579544 48.000000,88.000000 48.000000,88.000000 
	C46.933254,88.000000 45.866508,88.000000 44.396149,87.791946 
	C43.992538,87.583893 43.966232,87.168549 43.966232,87.168549 
z"/>
<path fill="#8E8E8E" opacity="1.000000" stroke="none" 
	d="
M43.619720,87.108948 
	C43.966232,87.168549 43.992538,87.583893 43.996269,87.791946 
	C43.250000,88.000000 42.500000,88.000000 41.375000,88.000000 
	C41.757736,87.683113 42.515469,87.366226 43.619720,87.108948 
z"/>
<path fill="#8E8E8E" opacity="1.000000" stroke="none" 
	d="
M48.375000,88.000000 
	C48.000000,88.000000 48.004353,87.579544 48.018375,87.369980 
	C48.944126,87.220795 49.855854,87.281181 50.883789,87.670784 
	C50.250000,88.000000 49.500000,88.000000 48.375000,88.000000 
z"/>
<path fill="#090909" opacity="1.000000" stroke="none" 
	d="
M265.920013,48.848843 
	C267.630402,44.117535 269.241333,39.763088 270.939453,35.172943 
	C273.208038,35.172943 275.458832,35.172943 278.471954,35.172943 
	C275.535431,42.917519 272.706970,50.428509 269.835602,57.923050 
	C268.765900,60.714985 267.665253,63.499081 266.458435,66.233681 
	C262.948822,74.186440 258.077820,75.715393 249.848984,71.349075 
	C250.569580,69.714371 251.297287,68.063545 252.131348,66.171448 
	C253.237732,66.460304 254.286880,66.897072 255.364731,66.985992 
	C259.046417,67.289734 260.426392,65.389618 259.028015,61.863522 
	C256.884857,56.459404 254.355530,51.191887 252.507935,45.692429 
	C251.077805,41.435566 248.632965,40.382015 244.146423,41.856426 
	C244.146423,49.239902 244.146423,56.814190 244.146423,64.616699 
	C241.556992,64.616699 239.487381,64.616699 237.025620,64.616699 
	C237.025620,57.017040 237.025620,49.581661 237.025620,42.016132 
	C235.515732,41.549747 234.324097,41.181667 233.089996,40.800465 
	C233.089996,39.013145 233.089996,37.364307 233.089996,36.058861 
	C234.432785,34.931526 236.356476,34.134232 236.695984,32.900864 
	C239.193832,23.826685 241.968842,22.158468 251.593430,24.669458 
	C251.593430,26.398746 251.593430,28.184452 251.593430,30.369682 
	C248.564896,30.408329 244.294495,28.775507 244.120361,34.756042 
	C248.057281,34.756042 251.807129,34.756042 255.650711,34.756042 
	C258.263763,41.394146 260.744904,47.697079 263.571259,54.877087 
	C264.528809,52.471272 265.174683,50.848484 265.920013,48.848843 
z"/>
<path fill="#0C0C0C" opacity="1.000000" stroke="none" 
	d="
M165.723206,49.983425 
	C163.906631,60.986176 158.863266,65.919121 150.359619,64.933380 
	C147.854431,64.642975 145.472595,63.288475 142.652588,62.285969 
	C142.652588,65.793846 142.652588,69.225777 142.652588,72.948509 
	C140.020187,72.948509 137.783539,72.948509 135.025238,72.948509 
	C135.025238,66.575912 135.025253,60.291969 135.025253,54.008030 
	C135.025253,47.865520 135.025238,41.723007 135.025238,35.148754 
	C138.171402,35.329994 141.564987,32.988918 143.262253,37.546444 
	C152.032150,30.128819 165.509323,35.717136 165.723206,49.983425 
M150.463440,40.874382 
	C149.044708,41.261887 147.420197,41.332951 146.246002,42.096512 
	C142.786072,44.346455 141.302841,47.958195 142.809860,51.613510 
	C143.860443,54.161713 146.313934,57.135628 148.732910,57.816952 
	C150.902802,58.428104 154.800430,56.913677 156.325867,55.031872 
	C160.449539,49.944828 157.678421,43.044464 150.463440,40.874382 
z"/>
<path fill="#0B0B0B" opacity="1.000000" stroke="none" 
	d="
M115.847626,48.105843 
	C115.125778,47.996204 114.783775,47.986031 114.470749,47.885563 
	C104.895340,44.812111 101.894730,40.816856 103.712868,33.577354 
	C105.351311,27.053326 112.929153,23.335485 121.208961,25.390635 
	C124.637131,26.241549 127.852669,27.949100 131.754730,29.501760 
	C129.970978,32.022411 128.767807,33.722626 127.890121,34.962891 
	C123.754051,33.823807 120.034515,32.303329 116.214020,31.981560 
	C114.594139,31.845129 112.762352,34.224751 111.026871,35.460846 
	C112.268402,36.990868 113.210808,39.131275 114.816513,39.918194 
	C117.756355,41.358944 121.141548,41.855690 124.244995,43.005325 
	C130.462387,45.308491 132.846619,48.823017 132.339111,54.515629 
	C131.861710,59.870499 127.721695,64.006172 121.913399,64.930420 
	C114.714363,66.075951 107.935822,64.009125 101.871185,58.652901 
	C103.173241,57.062889 104.490967,55.453754 105.278717,54.491791 
	C110.143951,55.789150 114.422241,57.468304 118.813095,57.848892 
	C120.698898,58.012348 122.818420,55.479404 124.831757,54.171524 
	C123.258972,52.490696 121.835976,50.621193 120.052742,49.205452 
	C119.104202,48.452393 117.531776,48.485157 115.847626,48.105843 
z"/>
<path fill="#0B0B0B" opacity="1.000000" stroke="none" 
	d="
M192.993774,62.135620 
	C183.517868,69.002342 169.040955,63.553509 167.946274,51.673759 
	C167.236115,43.966934 171.392273,37.516651 178.675568,35.116802 
	C185.877579,32.743736 193.744644,35.542370 197.327469,41.752026 
	C201.108276,48.304852 199.540802,56.156887 192.993774,62.135620 
M190.599442,54.951614 
	C193.346390,48.175804 191.035736,42.088047 185.198410,41.039608 
	C181.134064,40.309612 177.932312,41.775284 176.204483,45.627651 
	C174.427048,49.590607 175.580917,54.896717 178.863358,56.869736 
	C182.786575,59.227924 186.740555,59.313488 190.599442,54.951614 
z"/>
<path fill="#040404" opacity="1.000000" stroke="none" 
	d="
M206.018311,62.916855 
	C205.102570,58.275646 204.370819,53.929276 203.919647,49.553967 
	C203.665466,47.089043 203.873825,44.576424 203.873825,41.761967 
	C199.076431,41.725086 199.851181,38.573120 200.342377,35.352764 
	C206.561691,35.166153 202.660110,29.890068 204.353943,27.059818 
	C206.377640,27.059818 208.467682,27.059818 211.006485,27.059818 
	C211.006485,29.562855 211.006485,31.972322 211.006485,34.684883 
	C213.860580,34.817635 216.292236,34.930733 219.043884,35.058720 
	C219.043884,37.018448 219.043884,38.893364 219.043884,41.215805 
	C216.529816,41.215805 214.108337,41.215805 211.082138,41.215805 
	C211.082138,46.062759 210.904099,50.507404 211.139832,54.929993 
	C211.320511,58.319515 212.417740,58.612026 219.338486,57.415157 
	C218.914322,59.769691 219.222305,63.067497 218.029099,63.753258 
	C214.314514,65.888107 210.100616,65.972168 206.018311,62.916855 
z"/>
<path fill="#191919" opacity="1.000000" stroke="none" 
	d="
M229.806946,63.503242 
	C227.567368,64.381783 225.399506,64.809937 222.755859,65.332054 
	C222.755859,54.916363 222.755859,45.203247 222.755859,35.170742 
	C224.935806,35.170742 227.160324,35.170742 229.878677,35.170742 
	C229.878677,44.502823 229.878677,53.777836 229.806946,63.503242 
z"/>
<path fill="#0B0B0B" opacity="1.000000" stroke="none" 
	d="
M227.654587,30.921558 
	C224.088867,31.344608 221.776199,30.004547 221.831726,26.791203 
	C221.859024,25.212265 223.407028,22.653852 224.688385,22.356728 
	C226.292648,21.984732 228.936050,22.965643 230.053925,24.279139 
	C232.346024,26.972376 230.311172,29.117088 227.654587,30.921558 
z"/>
<path fill="#D2D2D2" opacity="1.000000" stroke="none" 
	d="
M282.952545,36.916656 
	C283.254242,36.092213 283.555969,35.267773 283.857666,34.443329 
	C284.242462,35.011391 284.627258,35.579449 284.688202,36.577419 
	C283.893738,36.977108 283.423126,36.946884 282.952545,36.916656 
z"/>
<path fill="#FBFBFB" opacity="1.000000" stroke="none" 
	d="
M288.085419,40.960949 
	C287.662994,40.973686 287.240540,40.986423 286.452240,40.669540 
	C286.057678,39.893387 286.028992,39.446857 286.102234,38.773506 
	C286.204132,38.546684 286.267883,38.053459 286.544434,38.056587 
	C287.188965,38.037270 287.556946,38.014820 287.960358,38.363129 
	C288.025665,39.476242 288.055542,40.218594 288.085419,40.960949 
z"/>
<path fill="#D2D2D2" opacity="1.000000" stroke="none" 
	d="
M287.924927,37.992371 
	C287.556946,38.014820 287.188965,38.037270 286.417572,37.837563 
	C286.001892,37.447128 285.989594,37.278839 285.977264,37.110554 
	C286.928894,37.213982 287.880524,37.317406 288.645050,37.653824 
	C288.280273,37.922001 288.102600,37.957188 287.924927,37.992371 
z"/>
<path fill="#404040" opacity="1.000000" stroke="none" 
	d="
M285.748047,37.027637 
	C285.989594,37.278839 286.001892,37.447128 286.141022,37.834435 
	C286.267883,38.053459 286.204132,38.546684 285.843201,38.808525 
	C285.311310,39.036766 285.140350,39.003166 284.983429,38.982723 
	C284.997498,38.995880 285.027222,39.020145 284.914185,38.636818 
	C284.084808,38.340336 283.368469,38.427177 282.652161,38.514015 
	C282.652161,38.514019 282.377411,38.421658 282.586243,38.080009 
	C282.885315,37.527386 282.975525,37.316418 283.065735,37.105450 
	C283.065735,37.105450 283.046631,36.988586 282.999573,36.952621 
	C283.423126,36.946884 283.893738,36.977108 284.706451,36.911682 
	C285.048584,36.816036 285.518829,36.944721 285.748047,37.027637 
z"/>
<path fill="#888888" opacity="1.000000" stroke="none" 
	d="
M284.969360,38.969566 
	C285.140350,39.003166 285.311310,39.036766 285.741333,39.035347 
	C286.028992,39.446857 286.057678,39.893387 286.135132,40.672253 
	C285.747864,41.037590 285.311859,41.070591 284.968750,40.444771 
	C285.030914,39.513817 285.000153,39.241692 284.969360,38.969566 
z"/>
<path fill="#696969" opacity="1.000000" stroke="none" 
	d="
M287.960358,38.363129 
	C288.102600,37.957188 288.280273,37.922001 288.720642,37.956070 
	C288.898407,38.927292 288.813507,39.829266 288.407013,40.846092 
	C288.055542,40.218594 288.025665,39.476242 287.960358,38.363129 
z"/>
<path fill="#404040" opacity="1.000000" stroke="none" 
	d="
M284.983429,38.982723 
	C285.000153,39.241692 285.030914,39.513817 285.013245,40.194241 
	C284.092499,40.223927 283.220215,39.845318 282.852203,39.191185 
	C283.913391,38.950489 284.470306,38.985317 285.027222,39.020145 
	C285.027222,39.020145 284.997498,38.995880 284.983429,38.982723 
z"/>
<path fill="#787878" opacity="1.000000" stroke="none" 
	d="
M284.914185,38.636818 
	C284.470306,38.985317 283.913391,38.950489 282.997406,38.693867 
	C282.638336,38.472076 282.707703,38.480095 282.679932,38.497055 
	C283.368469,38.427177 284.084808,38.340336 284.914185,38.636818 
z"/>
<path fill="#787878" opacity="1.000000" stroke="none" 
	d="
M282.591797,41.449905 
	C282.457245,41.545204 282.421417,41.166492 282.421417,41.166492 
	C282.421417,41.166492 282.726349,41.354603 282.591797,41.449905 
z"/>
<path fill="#787878" opacity="1.000000" stroke="none" 
	d="
M282.831573,37.065487 
	C282.975525,37.316418 282.885315,37.527386 282.522949,37.949631 
	C282.366333,37.782444 282.481873,37.403984 282.831573,37.065487 
z"/>
<path fill="#F6F6F6" opacity="1.000000" stroke="none" 
	d="
M38.053970,32.830635 
	C32.489651,33.531921 27.425922,34.525352 22.326033,34.772472 
	C20.538721,34.859074 18.662510,33.111034 16.826895,32.200764 
	C17.923889,30.461437 18.731014,27.508259 20.161774,27.166592 
	C38.793724,22.717245 57.024822,23.701948 74.483688,32.262295 
	C77.101707,33.545948 78.646812,35.823605 76.676201,38.192432 
	C75.630547,39.449387 72.292969,40.241116 70.873871,39.515137 
	C60.658146,34.289043 49.803375,32.696682 38.053970,32.830635 
z"/>
<path fill="#F2F2F2" opacity="1.000000" stroke="none" 
	d="
M57.610962,49.151794 
	C46.573086,45.681431 35.837299,44.674305 24.923586,47.838528 
	C22.547235,48.527508 19.726969,48.607491 19.544466,45.473549 
	C19.464895,44.107197 21.618946,41.682949 23.152908,41.293938 
	C38.536541,37.392605 53.416496,39.012173 67.592567,46.263237 
	C69.811768,47.398354 72.477242,48.760437 70.694832,51.896854 
	C68.952797,54.962212 66.566406,53.480614 64.279762,52.219814 
	C62.257328,51.104691 60.089596,50.253071 57.610962,49.151794 
z"/>
<path fill="#EDEDED" opacity="1.000000" stroke="none" 
	d="
M65.829788,62.122414 
	C64.843582,65.117920 63.207306,65.606697 60.769188,64.213020 
	C50.613926,58.408062 39.726429,57.800148 28.485027,59.766453 
	C27.016802,60.023266 25.458858,60.425320 24.053226,60.164104 
	C23.013691,59.970917 21.456959,58.860283 21.398664,58.065384 
	C21.332357,57.161247 22.512693,55.523998 23.431589,55.285385 
	C37.608040,51.604107 51.351696,52.321106 64.269066,59.903614 
	C64.922142,60.286968 65.309059,61.123749 65.829788,62.122414 
z"/>
<path fill="#F6F6F6" opacity="1.000000" stroke="none" 
	d="
M150.867889,40.898224 
	C157.678421,43.044464 160.449539,49.944828 156.325867,55.031872 
	C154.800430,56.913677 150.902802,58.428104 148.732910,57.816952 
	C146.313934,57.135628 143.860443,54.161713 142.809860,51.613510 
	C141.302841,47.958195 142.786072,44.346455 146.246002,42.096512 
	C147.420197,41.332951 149.044708,41.261887 150.867889,40.898224 
z"/>
<path fill="#F7F7F7" opacity="1.000000" stroke="none" 
	d="
M190.361176,55.278496 
	C186.740555,59.313488 182.786575,59.227924 178.863358,56.869736 
	C175.580917,54.896717 174.427048,49.590607 176.204483,45.627651 
	C177.932312,41.775284 181.134064,40.309612 185.198410,41.039608 
	C191.035736,42.088047 193.346390,48.175804 190.361176,55.278496 
z"/>
</svg>