<svg version="1.1" id="Layer_1" xmlns="http://www.w3.org/2000/svg" xmlns:xlink="http://www.w3.org/1999/xlink" x="0px" y="0px"
	 width="100%" viewBox="0 0 50 50" enable-background="new 0 0 50 50" xml:space="preserve">
<path fill="#FFFFFF" opacity="1.000000" stroke="none" 
	d="
M35.007366,51.000000 
	C23.339518,51.000000 12.172999,51.000000 1.004862,51.000000 
	C1.003241,34.335716 1.003241,17.671432 1.001620,1.005362 
	C17.664061,1.003575 34.328121,1.003575 50.994141,1.001787 
	C50.996094,17.663837 50.996094,34.327679 50.998047,50.995758 
	C45.836235,51.000000 40.672466,51.000000 35.007366,51.000000 
M25.529865,32.004105 
	C25.529865,32.004105 26.000912,31.967880 26.606800,32.247871 
	C27.738499,32.165627 28.870195,32.083385 30.677736,31.608307 
	C33.238949,26.589109 32.602482,24.865808 25.587708,18.453426 
	C24.354475,19.952223 23.121241,21.451019 21.443565,22.954412 
	C21.443565,22.954412 21.000000,22.982679 20.357630,23.054018 
	C20.913078,24.313850 21.468525,25.573685 22.215076,27.316376 
	C22.482849,27.525366 22.750620,27.734358 23.449007,28.199341 
	C23.635098,28.470026 23.821188,28.740709 23.323509,29.145872 
	C21.365629,30.812672 21.257803,32.136330 24.478086,32.767944 
	C24.751635,32.578178 24.944778,32.326641 25.529865,32.004105 
z"/>
<path fill="#DADADA" opacity="1.000000" stroke="none" 
	d="
M21.000000,22.982679 
	C21.000000,22.982679 21.443565,22.954412 22.036133,22.972214 
	C23.679783,23.045940 24.730867,23.101866 26.008358,23.169838 
	C26.008358,21.541992 26.008358,20.253744 26.008358,18.965494 
	C32.602482,24.865808 33.238949,26.589109 30.036453,31.648235 
	C28.369091,30.257648 27.535297,28.596603 26.226555,27.504965 
	C25.667807,27.038902 24.117905,27.761105 23.018393,27.943348 
	C22.750620,27.734358 22.482849,27.525366 22.071119,26.749592 
	C21.618109,25.116098 21.309053,24.049389 21.000000,22.982679 
z"/>
<path fill="#DAD9D9" opacity="1.000000" stroke="none" 
	d="
M23.233700,28.071344 
	C24.117905,27.761105 25.667807,27.038902 26.226555,27.504965 
	C27.535297,28.596603 28.369091,30.257648 29.698532,31.844654 
	C28.870195,32.083385 27.738499,32.165627 26.303406,31.825300 
	C25.335768,30.605618 24.671524,29.808506 24.007278,29.011395 
	C23.821188,28.740709 23.635098,28.470026 23.233700,28.071344 
z"/>
<path fill="#DAD9D9" opacity="1.000000" stroke="none" 
	d="
M25.798033,18.709461 
	C26.008358,20.253744 26.008358,21.541992 26.008358,23.169838 
	C24.730867,23.101866 23.679783,23.045940 22.258354,22.969917 
	C23.121241,21.451019 24.354475,19.952223 25.798033,18.709461 
z"/>
<path fill="#DADADA" opacity="1.000000" stroke="none" 
	d="
M23.665394,29.078632 
	C24.671524,29.808506 25.335768,30.605618 26.000462,31.685305 
	C26.000912,31.967880 25.529865,32.004105 25.070545,32.097946 
	C24.329124,32.367695 24.133642,32.612690 24.024778,32.926777 
	C21.257803,32.136330 21.365629,30.812672 23.665394,29.078632 
z"/>
<path fill="#DAD9D9" opacity="1.000000" stroke="none" 
	d="
M20.678814,23.018349 
	C21.309053,24.049389 21.618109,25.116098 21.975567,26.508163 
	C21.468525,25.573685 20.913078,24.313850 20.678814,23.018349 
z"/>
<path fill="#DAD9D9" opacity="1.000000" stroke="none" 
	d="
M24.251432,32.847359 
	C24.133642,32.612690 24.329124,32.367695 24.834372,32.102562 
	C24.944778,32.326641 24.751635,32.578178 24.251432,32.847359 
z"/>
</svg>